<?xml version="1.0" encoding="UTF-8"?>
<svg style="background-color:transparent;" preserveAspectRatio="xMinYMin meet" height="449" width="848" viewBox="433 258 868 469" xmlns:xlink="http://www.w3.org/1999/xlink" xmlns="http://www.w3.org/2000/svg" ><defs><g id="linkshape" class="svglink"><rect width="26" height="25.705463" x="0" y="0" rx="26" style="fill:#fff;stroke:none;"/><path d="m12.96972,3.89162c-1.46202,0.0926 -1.96087,1.3485 -1.97318,2.16807c0.061,1.06359 0.95974,1.43208 1.91556,1.67657c0.86622,0.20718 2.53795,-0.39401 2.58252,-1.25608c0.1196,-2.10236 -0.96772,-2.51327 -2.5249,-2.58856 z" style="fill:none;stroke:#00642A;stroke-width:1.33538628"/><path d="m13.33742,8.10908c-0.00095,4.26823 0.42843,9.17994 0.13576,13.07847" style="fill:none;stroke:#00642A;stroke-width:1.33538628"/><path d="m5.79976,15.83298c1.21269,7.46208 13.76733,8.39403 14.45306,0.22481" style="fill:none;stroke:#00642A;stroke-width:1.33538628"/><path d="m20.53438,12.70151c0.36453,0.65146 1.3076,1.62194 1.50505,2.23541c0.14125,0.40272 0.14865,0.52327 -0.60832,0.50239c-0.84553,0.0577 -2.5409,0.2236 -3.30599,0.13608c-0.42486,-0.124 -0.38393,-0.3733 -0.15689,-0.81348c0.4456,-0.73802 0.83742,-1.23374 1.36025,-2.03069c0.44058,-0.5668 0.8427,-0.6095 1.2059,-0.0297 z" style="fill:none;stroke:#00642A;stroke-width:1.33538628"/><path d="m6.65205,12.98495c0.46781,0.5895 0.69238,0.72549 1.30269,1.52036c0.2394,0.21964 0.28495,0.66561 -0.15744,0.62957c-1.02897,0.0804 -2.31388,0.096 -3.23877,0.112c-0.84264,0.0267 -0.72894,-0.1367 -0.46065,-0.75013c0.29098,-0.54544 0.6673,-0.89767 1.08185,-1.59111c0.54713,-0.81778 0.90943,-0.7521 1.47232,0.0793 z" style="fill:none;stroke:#00642A;stroke-width:1.33538628"/></g><style type="text/css">.svg-txt-center tspan {text-anchor: middle;} .svg-txt-right tspan {text-anchor: end;} svg a {fill: #0088cc;} .dark-shape a {fill:#B8ECFF;}</style></defs><g><g/><g><g class="shapebase"><g transform="matrix(1.00000000,0.00000000,0.00000000,1.00000000,769.00000000,312.00000000)"><path fill="rgb(204, 204, 255)" fill-opacity="0" stroke="rgb(51, 51, 51)" stroke-opacity="1" stroke-width="3.0" stroke-linecap="butt" stroke-linejoin="miter" stroke-miterlimit="4" path="" stroke-dasharray="none" d="m18.5857488,-0.19104285714285715l102.216796,-0.9736950714285715c1.16655774,-0.011060214285714286 2.1680715800000003,1.055054142857143 2.10578864,2.3605617857142858l-3.4738542000000003,72.82295714285715c-0.06227472000000001,1.3051329285714286 -0.9391898000000001,2.3658108571428573 -2.10578864,2.3601870714285718l-100.47991000000002,-0.4866586428571429c-1.16659884,-0.0059985 -2.1376027800000004,-1.0535552857142858 -2.1057913800000003,-2.3605617857142858l1.7369243600000002,-71.36249285714287c0.03181962,-1.3073812142857144 0.9392254200000001,-2.3496889285714286 2.1057913800000003,-2.3605617857142858z" fill-rule="evenodd"/><path fill="rgb(204, 204, 255)" fill-opacity="0" stroke="rgb(51, 51, 51)" stroke-opacity="1" stroke-width="3.0" stroke-linecap="butt" stroke-linejoin="miter" stroke-miterlimit="4" path="" stroke-dasharray="none" d="m0.04641286,80.71038571428572c-0.061655480000000006,0.9579478571428572 -0.04641286,0.85484 -0.04641286,1.9680086428571428c0,1.4588548571428572 0.9826270200000001,2.5832680000000003 2.2725121600000002,2.592267285714286l132.762042,0.9208296428571429c1.2898824000000002,0.009374 2.4165430000000003,-0.5755181428571429 2.2725121600000002,-2.026497857142857c-0.10855606000000001,-1.0936712142857143 0.13292014000000002,-1.4513544285714286 -0.164948,-2.6590063571428573l-53.72592,-0.49528321428571437c-0.09074606000000002,1.3212548571428573 -1.0786804600000002,2.3751817857142856 -2.2725121600000002,2.362060642857143l-22.545185800000002,-0.244455c-1.19382622,-0.012746428571428572 -2.1817798,-1.087298 -2.2725121600000002,-2.410801142857143z" fill-rule="evenodd"/></g><rect fill="rgb(0, 0, 0)" fill-opacity="0" stroke="none" stroke-opacity="0" stroke-width="1" stroke-linecap="butt" stroke-linejoin="miter" stroke-miterlimit="4" x="769" y="312" width="137" height="86" ry="0" rx="0" fill-rule="evenodd"/><g transform="matrix(1.00000000,0.00000000,0.00000000,1.00000000,769.00000000,312.00000000)"><g class="shapebase"><text fill="rgb(51, 51, 51)" fill-opacity="1" stroke="none" stroke-opacity="0" stroke-width="1" stroke-linecap="butt" stroke-linejoin="miter" stroke-miterlimit="4" x="68" y="101" text-anchor="middle" text-decoration="none" rotate="0" kerning="auto" text-rendering="auto" fill-rule="evenodd" font-style="normal" font-variant="normal" font-weight="bold" font-size="12px" font-family="arial,helvetica,sans-serif">Client</text></g></g></g><g class="shapebase"><g transform="matrix(1.00000000,0.00000000,0.00000000,1.00000000,834.00000000,466.00000000)"><path fill="rgb(204, 204, 255)" fill-opacity="0" stroke="rgb(51, 51, 51)" stroke-opacity="1" stroke-width="3.0" stroke-linecap="butt" stroke-linejoin="miter" stroke-miterlimit="4" path="" stroke-dasharray="none" d="m44.506896,-0.020450669938054614c-22.825319999999998,0 -44.552592,8.0701892029969 -44.552592,19.006888194686248l0.7047095999999999,21.513463403899657c0,10.9367512773633 21.919632,19.557804912550495 44.744952,19.557804912550495c22.825319999999998,0 37.919952,-8.621123349419129 37.919952,-19.557804912550495l0,-20.051381674648418c0,-10.9367512773633 -15.991852799999998,-20.46914420951732 -38.817071999999996,-20.46914420951732z" fill-rule="evenodd"/><path fill="rgb(204, 204, 255)" fill-opacity="0" stroke="rgb(51, 51, 51)" stroke-opacity="1" stroke-width="3.0" stroke-linecap="butt" stroke-linejoin="miter" stroke-miterlimit="4" path="" stroke-dasharray="none" d="m83.517168,22.131305784421247c0,10.9367512773633 -27.973008,18.325780148683883 -50.842344,18.340594422970014c-22.958208,0.014866559960082314 -32.519928,-11.424750900906446 -32.519928,-22.361537035385712c0,-10.9367512773633 24.845855999999998,-17.79229198880332 47.671175999999996,-17.79229198880332c22.825319999999998,0 35.691096,10.876448466739753 35.691096,21.81323460121902z" fill-rule="evenodd"/><path fill="rgb(250, 250, 250)" fill-opacity="1" stroke="rgb(51, 51, 51)" stroke-opacity="1" stroke-width="3.0" stroke-linecap="butt" stroke-linejoin="miter" stroke-miterlimit="4" path="" stroke-dasharray="none" style="stroke-linecap:butt;stroke-linejoin:round;stroke-miterlimit:4;" d="m45.46583999999999,20.24483866826731l0.99363264,9.255958573974814l3.3258119999999995,-2.2817119541079207l11.0449248,6.633971453793449l8.0711568,-4.187803626551488l-11.2601496,-6.24338004082111l2.9971872,-2.2814679542961493z" fill-rule="evenodd"/><path fill="rgb(250, 250, 250)" fill-opacity="1" stroke="rgb(51, 51, 51)" stroke-opacity="1" stroke-width="3.0" stroke-linecap="butt" stroke-linejoin="miter" stroke-miterlimit="4" path="" stroke-dasharray="none" style="stroke-linecap:butt;stroke-linejoin:round;stroke-miterlimit:4;" d="m38.6988,17.55683217044375l-0.99363264,-7.678918076263198l-3.654084,2.2817119541079207l-11.3732136,-7.422491702649258l-7.7428680000000005,4.71348379245536l11.5884552,6.24338004082111l-2.6688984,2.0186278713442136z" fill-rule="evenodd"/><path fill="rgb(250, 250, 250)" fill-opacity="1" stroke="rgb(51, 51, 51)" stroke-opacity="1" stroke-width="3.0" stroke-linecap="butt" stroke-linejoin="miter" stroke-miterlimit="4" path="" stroke-dasharray="none" style="stroke-linecap:butt;stroke-linejoin:round;stroke-miterlimit:4;" d="m67.180008,6.321738837515753l-15.3312432,0.07890256770373348l4.2018144,2.6759982213728004l-11.690783999999999,5.743528997849058l7.1483832000000005,3.5749980992871797l11.570244,-6.37878250779635l4.8578376,2.4128095672611907z" fill-rule="evenodd"/><path fill="rgb(250, 250, 250)" fill-opacity="1" stroke="rgb(51, 51, 51)" stroke-opacity="1" stroke-width="3.0" stroke-linecap="butt" stroke-linejoin="miter" stroke-miterlimit="4" path="" stroke-dasharray="none" style="stroke-linecap:butt;stroke-linejoin:round;stroke-miterlimit:4;" d="m16.47786,32.789566133763266l14.3346,-0.11835559441139858l-3.7485,-2.6464393870324727l12.5393688,-6.005236224532054l-7.1374632,-3.8075473484634736l-12.361355999999999,6.138059264925709l-3.7481136,-2.6461605301047335z" fill-rule="evenodd"/></g><rect fill="rgb(0, 0, 0)" fill-opacity="0" stroke="none" stroke-opacity="0" stroke-width="1" stroke-linecap="butt" stroke-linejoin="miter" stroke-miterlimit="4" x="834" y="466" width="84" height="61" ry="0" rx="0" fill-rule="evenodd"/><g transform="matrix(1.00000000,0.00000000,0.00000000,1.00000000,834.00000000,466.00000000)"><g class="shapebase"><text fill="rgb(51, 51, 51)" fill-opacity="1" stroke="none" stroke-opacity="0" stroke-width="1" stroke-linecap="butt" stroke-linejoin="miter" stroke-miterlimit="4" x="42" y="76" text-anchor="middle" text-decoration="none" rotate="0" kerning="auto" text-rendering="auto" fill-rule="evenodd" font-style="normal" font-variant="normal" font-weight="bold" font-size="12px" font-family="arial,helvetica,sans-serif">Message Queue /</text><text fill="rgb(51, 51, 51)" fill-opacity="1" stroke="none" stroke-opacity="0" stroke-width="1" stroke-linecap="butt" stroke-linejoin="miter" stroke-miterlimit="4" x="42" y="93" text-anchor="middle" text-decoration="none" rotate="0" kerning="auto" text-rendering="auto" fill-rule="evenodd" font-style="normal" font-variant="normal" font-weight="bold" font-size="12px" font-family="arial,helvetica,sans-serif">Event Bus</text></g></g></g><g class="shapebase"><g transform="matrix(1.00000000,0.00000000,0.00000000,1.00000000,1014.00000000,432.00000000)"><path fill="rgb(204, 204, 255)" fill-opacity="0" stroke="rgb(51, 51, 51)" stroke-opacity="1" stroke-width="3.0" stroke-linecap="butt" stroke-linejoin="miter" stroke-miterlimit="4" path="" stroke-dasharray="none" d="m102.72581030346225,0.21526257606377444c-9.392092637210752,0 -17.70174031061462,12.24377277901096 -22.80664728738638,31.048567602697506c-9.552632531789149,-12.832685868684383 -22.31393082252881,-20.279320810504863 -34.69444961082445,-18.59234199072086c-18.421383526546936,2.5112668078911127 -29.75303843975976,24.386032258993954 -27.557038758955734,50.812844375946625c-12.034871016479253,11.353673356596522 -18.777062013177005,25.49991412364059 -17.22903681782493,39.49737446179679c1.2667775200930935,11.454099013134906 7.8814766777821665,20.951483869068632 17.914420539200368,27.56448616105898c-2.9244330980271687,12.092454517647395 -2.9737338190486167,24.716041117708986 0.49631201577145906,35.704855737486675c7.659444140215547,24.25574175242904 29.73103870775294,31.595107953714162 49.96168213284305,17.081289343627297c0.39924183260833135,1.3647511367132101 0.8108209598618965,2.7123583086843306 1.2525988381873772,4.0389377258568c10.616954368348123,31.881656431282845 29.533477237726945,39.958988061751654 42.23362208839479,18.037191136661658c4.133061546736599,-7.134118999812947 7.082993012565503,-16.58614010024355 8.839046510792633,-27.163961814269165c7.538057953702151,24.363644951083323 23.27091916482544,28.904325752916982 37.03422287062458,9.250127463301316c3.759090331400418,-5.368286099534005 7.017769137496828,-12.025519186100828 9.689864340254593,-19.48661070934538c3.176586854570525,6.516745931662043 6.629381798213448,12.2036659622075 10.257060074042736,16.74271530030678c18.119977506541616,22.67195301384445 33.950916818065345,8.149795811337434 35.37983333219989,-32.436535374719654c0.2573484069202969,-7.30950135125859 0.03828147199424466,-14.949781974662338 -0.6144806203349591,-22.72393326115922c12.807914462965563,-7.732141095336646 20.501278894821578,-18.125154223006874 19.899678293798104,-29.136673379754658c-0.4607199383287088,-8.433851774867485 -5.718282764750425,-15.961878629658607 -14.251174414708073,-21.829981771594166c4.1195321961280005,-10.024030413078385 7.0081745407185245,-19.931093940089276 8.27185077700449,-28.983179833411924c4.4985672264305085,-32.22439977081344 -13.512826580814016,-41.462064663921595 -40.24841279135654,-20.62700385967566c-1.1788512784050467,0.9185956556415779 -2.349731288274583,1.896105279469031 -3.5214302308994396,2.898231878310767c-9.719568824219747,-29.90699617300351 -34.99100987488113,-37.0079420768841 -56.88675195904243,-15.724817885366058c-1.4291297273962802,1.3890962011050962 -2.807698837224465,2.8548077519140698 -4.135930234258193,4.409030742156761c-5.0336259067672815,-12.618012432302466 -11.819428707002782,-20.380562198910436 -19.285187981951246,-20.380562198910436z" fill-rule="evenodd"/></g><rect fill="rgb(0, 0, 0)" fill-opacity="0" stroke="none" stroke-opacity="0" stroke-width="1" stroke-linecap="butt" stroke-linejoin="miter" stroke-miterlimit="4" x="1014" y="432" width="233" height="218" ry="0" rx="0" fill-rule="evenodd"/><g transform="matrix(1.00000000,0.00000000,0.00000000,1.00000000,1014.00000000,432.00000000)"><g class="shapebase"/></g></g><g class="shapebase"><g transform="matrix(1.00000000,0.00000000,0.00000000,1.00000000,1131.00000000,468.00000000)"/><rect fill="rgb(0, 0, 0)" fill-opacity="0" stroke="none" stroke-opacity="0" stroke-width="1" stroke-linecap="butt" stroke-linejoin="miter" stroke-miterlimit="4" x="1131" y="468" width="100" height="51" ry="4" rx="4" fill-rule="evenodd"/><g transform="matrix(1.00000000,0.00000000,0.00000000,1.00000000,1131.00000000,468.00000000)"><g class="shapebase"><text fill="rgb(51, 51, 51)" fill-opacity="1" stroke="none" stroke-opacity="0" stroke-width="1" stroke-linecap="butt" stroke-linejoin="miter" stroke-miterlimit="4" x="0" y="21" text-anchor="start" text-decoration="none" rotate="0" kerning="auto" text-rendering="auto" fill-rule="evenodd" font-style="normal" font-variant="normal" font-weight="Normal" font-size="12px" font-family="arial,helvetica,sans-serif"><tspan x="0" font-weight="bold">Profit</tspan><tspan x="0" dy="17" font-weight="bold">Reporting</tspan></text></g></g></g><g class="shapebase"><g transform="matrix(0.73000000,0.00000000,0.00000000,0.71000000,1045.00000000,524.00000000)"><path fill="rgb(51, 51, 51)" fill-opacity="1" stroke="rgb(51, 51, 51)" stroke-opacity="1" stroke-width="3.0" stroke-linecap="butt" stroke-linejoin="miter" stroke-miterlimit="4" path="" stroke-dasharray="none" style="stroke:none;" d="m9.615,46.841c3.297,-0.116 6.364,-2.375 6.935,-5.294c0.043,-0.218 0.066,-0.44 0.08,-0.665c2.521,-1.164 5.038,-2.338 7.529,-3.566c1.458,1.137 3.349,1.8 5.107,1.738c0.542,-0.019 1.075,-0.101 1.594,-0.229c4.752,5.032 9.5,10.068 14.123,15.221c-0.302,0.689 -0.495,1.4 -0.514,2.043c-0.116,3.802 4.027,6.675 7.612,6.549c3.297,-0.116 6.364,-2.375 6.935,-5.294c0.25,-1.279 0.021,-2.685 -0.877,-4.093c-0.003,-0.006 -0.009,-0.011 -0.012,-0.017c1.549,-6.342 2.952,-12.719 4.49,-19.064c0.261,0.021 0.522,0.032 0.779,0.023c1.131,-0.04 2.233,-0.337 3.218,-0.821c2.703,1.527 5.256,3.283 7.795,5.063c-0.105,0.386 -0.181,0.768 -0.192,1.126c-0.116,3.802 4.026,6.675 7.612,6.549c3.297,-0.116 6.364,-2.375 6.935,-5.294c0.25,-1.279 0.021,-2.685 -0.877,-4.093c-1.894,-2.968 -7.521,-3.689 -10.557,-2.213c-0.123,0.06 -0.241,0.145 -0.362,0.222c-2.301,-1.612 -4.613,-3.206 -7.028,-4.642c0.174,-0.382 0.309,-0.779 0.389,-1.191c0.25,-1.279 0.021,-2.685 -0.877,-4.093c-1.895,-2.968 -7.521,-3.689 -10.557,-2.213c-1.649,0.801 -3.057,3.212 -3.113,5.051c-0.06,1.971 1.028,3.687 2.585,4.87c-1.47,6.038 -2.814,12.105 -4.269,18.146c-2.011,-0.528 -4.276,-0.473 -5.967,0.151c-4.357,-4.856 -8.822,-9.613 -13.302,-14.357c0.686,-0.783 1.176,-1.698 1.371,-2.694c0.25,-1.279 0.022,-2.685 -0.877,-4.093c-1.895,-2.968 -7.521,-3.689 -10.557,-2.213c-1.648,0.801 -3.057,3.212 -3.113,5.051c-0.01,0.336 0.023,0.662 0.076,0.982c-2.221,1.092 -4.463,2.142 -6.71,3.181c-2.307,-2.294 -7.16,-2.762 -9.905,-1.428c-1.649,0.801 -3.057,3.212 -3.114,5.051c-0.113999,3.803 4.029,6.676 7.615,6.55zm68.861,-7.48c0.191,-0.187 0.353,-0.407 0.479,-0.653c1.616,-1.198 6.996,0.429 5.328,2.447c-0.048,0.058 -0.102,0.116 -0.162,0.175c-1.44599,1.415 -6.346,-0.018 -5.645,-1.969zm-18.185,-12.361c1.25,-1.583 7.315,0.115 5.558,2.239c-0.048,0.058 -0.102,0.116 -0.162,0.175c-1.554,1.521 -7.107,-0.248 -5.396,-2.414zm-11.315,28.446c1.25,-1.583 7.315,0.115 5.558,2.239c-0.048,0.058 -0.102,0.116 -0.161,0.175c-1.554,1.521 -7.108,-0.248999 -5.397,-2.414zm-22.814,-23.583c1.25,-1.583 7.315,0.115 5.558,2.239c-0.048,0.058 -0.102,0.116 -0.161,0.175c-1.554,1.52 -7.108,-0.249001 -5.397,-2.414zm-19.652,7.786c1.251,-1.583 7.315,0.115 5.559,2.239c-0.048,0.058 -0.102,0.116 -0.161,0.175c-1.555,1.521 -7.109,-0.248 -5.398,-2.414z" fill-rule="evenodd"/><path fill="rgb(51, 51, 51)" fill-opacity="1" stroke="rgb(51, 51, 51)" stroke-opacity="1" stroke-width="3.0" stroke-linecap="butt" stroke-linejoin="miter" stroke-miterlimit="4" path="" stroke-dasharray="none" style="stroke:none;" d="m84.188,56.344c-0.133,0.06 -0.26,0.145 -0.39,0.222c-2.483,-1.612 -4.978,-3.206 -7.583,-4.642c0.187,-0.382 0.333,-0.779 0.42,-1.191c0.27,-1.279 0.023,-2.685 -0.946,-4.093c-2.044,-2.968 -8.115,-3.689 -11.39,-2.213c-1.779,0.801 -3.299,3.212 -3.359,5.051c-0.065,1.971 1.109,3.687 2.79,4.87c-1.586,6.038 -3.036,12.105 -4.606,18.146c-2.17,-0.528 -4.613,-0.473 -6.438,0.151c-4.702,-4.856 -9.519,-9.613 -14.352,-14.357c0.74,-0.783 1.268,-1.699 1.479,-2.694c0.27,-1.279 0.023,-2.685 -0.946,-4.093c-2.044,-2.968 -8.114,-3.689 -11.391,-2.213c-1.779,0.801 -3.298,3.212 -3.359,5.051c-0.011,0.336 0.025,0.662 0.083,0.982c-2.397,1.092 -4.815,2.142 -7.24,3.181c-2.49,-2.294 -7.726,-2.762 -10.687,-1.428c-1.779,0.801 -3.298,3.212 -3.36,5.051c-0.125,3.802 4.344,6.675 8.213,6.549c3.558,-0.116 6.866,-2.375 7.483,-5.294c0.046,-0.218 0.071,-0.44 0.086,-0.665c2.721,-1.164 5.436,-2.338 8.124,-3.566c1.573,1.137 3.613,1.8 5.511,1.738c0.584,-0.019 1.16,-0.101 1.719,-0.229c5.128,5.032 10.251,10.068 15.238,15.22c-0.326,0.689 -0.534,1.4 -0.555,2.043c-0.125,3.802 4.344,6.675 8.213,6.549c3.558,-0.116 6.866,-2.375 7.483,-5.294c0.27,-1.279 0.023,-2.685 -0.947,-4.093c-0.004,-0.006 -0.01,-0.011 -0.014,-0.017c1.672,-6.342 3.186,-12.719 4.844,-19.064c0.282,0.021 0.563,0.032 0.841,0.023c1.221,-0.04 2.409,-0.337 3.472,-0.821c2.916,1.527 5.671,3.283 8.411,5.063c-0.114,0.386 -0.195,0.768 -0.207,1.126c-0.125,3.802 4.344,6.675 8.213,6.549c3.558,-0.116 6.866,-2.375 7.483,-5.294c0.27,-1.279 0.023,-2.685 -0.946,-4.093c-2.043,-2.965 -8.11401,-3.686 -11.39,-2.211zm-70.415,7.381c-0.052,0.058 -0.11,0.116 -0.174,0.175c-1.677,1.521 -7.669,-0.248 -5.823,-2.414c1.349,-1.583 7.893,0.114 5.997,2.239zm21.204,-7.787c-0.052,0.058 -0.11,0.116 -0.174,0.175c-1.677,1.521 -7.668,-0.248 -5.823,-2.414c1.349,-1.583 7.892,0.114999 5.997,2.239zm24.616,23.583c-0.052,0.058 -0.11,0.116 -0.174,0.175c-1.677,1.521 -7.669,-0.248 -5.823,-2.414c1.349,-1.58301 7.892,0.114999 5.997,2.239zm12.208,-28.446c-0.052,0.058 -0.11,0.116 -0.174,0.175c-1.677,1.521 -7.669,-0.248 -5.823,-2.414c1.349,-1.583 7.892,0.114999 5.997,2.239zm19.889,11.917c-0.052,0.058 -0.11,0.116 -0.174,0.175c-1.561,1.415 -6.848,-0.019 -6.091,-1.969c0.206,-0.187 0.38,-0.407 0.517,-0.653c1.74399,-1.198 7.548,0.428999 5.748,2.447z" fill-rule="evenodd"/></g><rect fill="rgb(0, 0, 0)" fill-opacity="0" stroke="none" stroke-opacity="0" stroke-width="1" stroke-linecap="butt" stroke-linejoin="miter" stroke-miterlimit="4" x="1045" y="524" width="73" height="71" ry="0" rx="0" fill-rule="evenodd"/><g transform="matrix(1.00000000,0.00000000,0.00000000,1.00000000,1045.00000000,524.00000000)"><g class="shapebase"/></g></g><g class="shapebase"><g transform="matrix(1.00000000,0.00000000,0.00000000,1.00000000,1144.00000000,532.00000000)"><path fill="rgb(204, 204, 255)" fill-opacity="0" stroke="rgb(51, 51, 51)" stroke-opacity="1" stroke-width="3.0" stroke-linecap="butt" stroke-linejoin="miter" stroke-miterlimit="4" path="" stroke-dasharray="none" d="m0.18444520166501796,10.85075343655969l0,34.1925309318896c0,0 13.873543537097387,10.773282460928733 34.21964090732371,9.836137878339406c20.346096049260034,-0.9370107812497227 30.981737220777,-8.430688607134625 30.981737220777,-8.430688607134625l0,-34.1925309318896" fill-rule="evenodd"/><path fill="rgb(204, 204, 255)" fill-opacity="0" stroke="rgb(51, 51, 51)" stroke-opacity="1" stroke-width="3.0" stroke-linecap="butt" stroke-linejoin="miter" stroke-miterlimit="4" path="" stroke-dasharray="none" d="m34.40222618845685,0.546310869604829c39.6248209565297,3.5417214593288815 44.39245644188724,18.736067783466716 0,19.672677160697624c-44.39199146175427,0.9375459866081403 -47.16567721288122,-23.887553159576324 0,-19.672677160697624z" fill-rule="evenodd"/></g><rect fill="rgb(0, 0, 0)" fill-opacity="0" stroke="none" stroke-opacity="0" stroke-width="1" stroke-linecap="butt" stroke-linejoin="miter" stroke-miterlimit="4" x="1144" y="532" width="66" height="55" ry="0" rx="0" fill-rule="evenodd"/><g transform="matrix(1.00000000,0.00000000,0.00000000,1.00000000,1144.00000000,532.00000000)"><g class="shapebase"><text fill="rgb(51, 51, 51)" fill-opacity="1" stroke="none" stroke-opacity="0" stroke-width="1" stroke-linecap="butt" stroke-linejoin="miter" stroke-miterlimit="4" x="33" y="40" text-anchor="middle" text-decoration="none" rotate="0" kerning="auto" text-rendering="auto" fill-rule="evenodd" font-style="normal" font-variant="normal" font-weight="bold" font-size="12px" font-family="arial,helvetica,sans-serif">DB</text></g></g></g><g class="shapebase"><g transform="matrix(1.00000000,0.00000000,0.00000000,1.00000000,1059.00000000,473.00000000)"><path fill="rgb(204, 204, 255)" fill-opacity="0" stroke="rgb(51, 51, 51)" stroke-opacity="1" stroke-width="3.0" stroke-linecap="butt" stroke-linejoin="miter" stroke-miterlimit="4" path="" stroke-dasharray="none" d="m24.950336947661658,13.48714330776677c-0.6562601232054366,9.240001417675133 -15.766193978899691,16.35786505366025 -22.024228950372063,7.378639023020686c-6.256876984212547,-8.975464605411005 -1.9691476930928604,-19.247926961892013 8.030554407567656,-20.66939369325251c9.997029822368612,-1.4227440067723351 14.575817971528831,5.097515653060458 13.993674542804408,13.290754670231825z" fill-rule="evenodd"/><path fill="rgb(51, 51, 51)" fill-opacity="1" stroke="rgb(51, 51, 51)" stroke-opacity="1" stroke-width="3.0" stroke-linecap="butt" stroke-linejoin="miter" stroke-miterlimit="4" path="" stroke-dasharray="none" style="stroke:none;" d="m5.610627344051808,9.819089928999174c1.1800450345928721,-5.88270814087877 10.969316698624421,-5.155153963180434 13.480294068890268,-0.14301461697889645c2.5109406379181927,5.010489951181528 -0.008264778222390195,8.382497038430781 -5.5514790812402355,9.30644991095077c-5.816420321789324,0.9706488547023385 -9.250904010625051,-2.575057631270019 -7.928814987650034,-9.163435293971874z" fill-rule="evenodd"/></g><rect fill="rgb(0, 0, 0)" fill-opacity="0" stroke="none" stroke-opacity="0" stroke-width="1" stroke-linecap="butt" stroke-linejoin="miter" stroke-miterlimit="4" x="1059" y="473" width="25" height="25" ry="0" rx="0" fill-rule="evenodd"/><g transform="matrix(1.00000000,0.00000000,0.00000000,1.00000000,1059.00000000,473.00000000)"><g class="shapebase"/></g></g><g class="shapebase"><g transform="matrix(1.00000000,0.00000000,0.00000000,1.00000000,1004.00000000,268.00000000)"><path fill="rgb(204, 204, 255)" fill-opacity="0" stroke="rgb(51, 51, 51)" stroke-opacity="1" stroke-width="3.0" stroke-linecap="butt" stroke-linejoin="miter" stroke-miterlimit="4" path="" stroke-dasharray="none" d="m113.30700964802487,0.12046804715495632c-10.359518488253919,0 -19.525095535742306,6.852019628620813 -25.155829840593558,17.375803887748145c-10.536594680986314,-7.181594843942635 -24.61236146519272,-11.348977701291712 -38.26812682395658,-10.404888637008922c-20.318865091513143,1.405387846617962 -32.81772909449896,13.64722906237276 -30.395532021680786,28.436545935162787c-13.274514382983552,6.353890594058603 -20.71117998878322,14.27059414258785 -19.00370155442492,22.10403524926242c1.3972610414760729,6.410092108268158 8.69330260167389,11.72514234874483 19.759682740663067,15.425996842427502c-3.2256622583389793,6.767336931894413 -3.2800411652167143,13.831912919084843 0.5474342834904076,19.98161651363933c8.448399759808565,13.57431419172634 32.79346329567599,17.681665919051042 55.1079498203462,9.559253669369404c0.44036545485124956,0.7637598104541817 0.8943389986459543,1.5179252920160013 1.3816218944813556,2.260322947497842c11.71054623461574,17.84202791108489 32.57555214633401,22.362369465750923 46.583866423680085,10.094207883819825c4.558784624512042,-3.9924886145742176 7.8125716919713915,-9.282151799218868 9.749506237226207,-15.20185018963687c8.31451027511353,13.634700385468646 25.667923713992007,16.17581532961409 40.848906771461444,5.176676837260369c4.146292768969559,-3.0042702024915076 7.740629477839848,-6.729877709652756 10.687961954701416,-10.905350947431817c3.503788934011265,3.6469862553338035 7.312236575711827,6.829574529308784 11.313581283386192,9.369776452465262c19.986412957859205,12.687973704995517 37.44800696241542,4.560894903592509 39.02410801019472,-18.152556494109163c0.28385639733268797,-4.090638370887834 0.04222462790781493,-8.366391747288096 -0.6777747614853411,-12.717063568171673c14.127184622240986,-4.327161530417755 22.612998609309635,-10.14343493214146 21.949430564403915,-16.305844735459026c-0.5081760693153569,-4.7198620024487745 -6.307290431505833,-8.932794462469493 -15.719106543261693,-12.216778789607742c4.543861692724875,-5.609778488053041 7.730046596414852,-11.1540984435362 9.123886908541431,-16.21994467741401c4.961938957908329,-18.03383840384972 -14.904705713601723,-23.203540775222173 -44.39417204883532,-11.54355261871757c-1.3002780195283132,0.5140764678361124 -2.5917636956505055,1.0611231380514758 -3.8841526581165486,1.621946280522539c-10.720726128002038,-16.736942812414807 -38.59523406800193,-20.71086666688009 -62.74633155997383,-8.800127440434215c-1.576336222922077,0.7773841125450538 -3.096903867668187,1.5976447051996168 -4.561948799160325,2.4674392226748845c-5.552110978708975,-7.061456498811472 -13.0368805909859,-11.405635725995747 -21.271645113139357,-11.405635725995747z" fill-rule="evenodd"/></g><rect fill="rgb(0, 0, 0)" fill-opacity="0" stroke="none" stroke-opacity="0" stroke-width="1" stroke-linecap="butt" stroke-linejoin="miter" stroke-miterlimit="4" x="1004" y="268" width="257" height="122" ry="0" rx="0" fill-rule="evenodd"/><g transform="matrix(1.00000000,0.00000000,0.00000000,1.00000000,1004.00000000,268.00000000)"><g class="shapebase"/></g></g><g class="shapebase"><g transform="matrix(1.00000000,0.00000000,0.00000000,1.00000000,1191.00000000,289.00000000)"/><rect fill="rgb(0, 0, 0)" fill-opacity="0" stroke="none" stroke-opacity="0" stroke-width="1" stroke-linecap="butt" stroke-linejoin="miter" stroke-miterlimit="4" x="1191" y="289" width="100" height="68" ry="4" rx="4" fill-rule="evenodd"/><g transform="matrix(1.00000000,0.00000000,0.00000000,1.00000000,1191.00000000,289.00000000)"><g class="shapebase"><text fill="rgb(51, 51, 51)" fill-opacity="1" stroke="none" stroke-opacity="0" stroke-width="1" stroke-linecap="butt" stroke-linejoin="miter" stroke-miterlimit="4" x="0" y="21" text-anchor="start" text-decoration="none" rotate="0" kerning="auto" text-rendering="auto" fill-rule="evenodd" font-style="normal" font-variant="normal" font-weight="Normal" font-size="12px" font-family="arial,helvetica,sans-serif"><tspan x="0" font-weight="bold">Online</tspan><tspan x="0" dy="17" font-weight="bold">Shop</tspan><tspan x="0" dy="17" font-weight="bold">Data</tspan></text></g></g></g><g class="shapebase"><g transform="matrix(1.00000000,0.00000000,0.00000000,1.00000000,803.00000000,328.00000000)"><path fill="rgb(204, 204, 255)" fill-opacity="0" stroke="rgb(51, 51, 51)" stroke-opacity="1" stroke-width="3.0" stroke-linecap="butt" stroke-linejoin="miter" stroke-miterlimit="4" path="" stroke-dasharray="none" d="m7.7139863415656835,7.839583821773669c14.18184914841924,-14.329780460921086 58.90848618111311,-8.43266725939855 61.0927536552721,13.482740564702395c2.180030291861876,21.9146711964977 -21.81831094338147,33.717000503178454 -46.91090450685285,24.443759300967464c-25.088356381174282,-9.266775248804741 -26.75356902393758,-25.22131065994684 -14.18184914841924,-37.92649986566986z" fill-rule="evenodd"/><path fill="rgb(204, 204, 255)" fill-opacity="0" stroke="rgb(51, 51, 51)" stroke-opacity="1" stroke-width="3.0" stroke-linecap="butt" stroke-linejoin="miter" stroke-miterlimit="4" path="" stroke-dasharray="none" d="m18.168678588797842,28.547004224066544c16.90985304085456,16.36950229430267 33.28518553492899,-1.3891732579525549 33.28518553492899,-1.3891732579525549" fill-rule="evenodd"/><path fill="rgb(204, 204, 255)" fill-opacity="0" stroke="rgb(51, 51, 51)" stroke-opacity="1" stroke-width="3.0" stroke-linecap="butt" stroke-linejoin="miter" stroke-miterlimit="4" path="" stroke-dasharray="none" d="m15.253179379715508,28.620666984390912c3.595778826882963,0.7509345482488408 4.276058444683593,-1.8020039210637209 4.276058444683593,-1.8020039210637209" fill-rule="evenodd"/><path fill="rgb(204, 204, 255)" fill-opacity="0" stroke="rgb(51, 51, 51)" stroke-opacity="1" stroke-width="3.0" stroke-linecap="butt" stroke-linejoin="miter" stroke-miterlimit="4" path="" stroke-dasharray="none" d="m54.41792144193402,27.27018304511094c-3.5957682339272203,0.7509345482488408 -4.276058444683593,-1.8021021380774866 -4.276058444683593,-1.8021021380774866" fill-rule="evenodd"/><path fill="rgb(51, 51, 51)" fill-opacity="1" stroke="rgb(51, 51, 51)" stroke-opacity="1" stroke-width="3.0" stroke-linecap="butt" stroke-linejoin="miter" stroke-miterlimit="4" path="" stroke-dasharray="none" style="" d="m43.43362907586425,16.799669897293732c-0.079404796247797,1.1387984464607366 -0.8720915639128212,2.2528748520815025 -1.8903934587607867,2.2104860258904058c-1.0183061320302627,-0.04238964466621148 -1.6822535306666915,-0.8497498673235135 -1.6028487344188946,-1.988542584458447c0.079404796247797,-1.1387984464607366 0.8720915639128212,-2.177780578781504 1.890398755238658,-2.135391752590407c1.0183050727346885,0.04238882619109677 1.68224823418882,0.7746588679239736 1.6028444972365974,1.9134483111584482z" fill-rule="evenodd"/><path fill="rgb(51, 51, 51)" fill-opacity="1" stroke="rgb(51, 51, 51)" stroke-opacity="1" stroke-width="3.0" stroke-linecap="butt" stroke-linejoin="miter" stroke-miterlimit="4" path="" stroke-dasharray="none" style="" d="m28.38652187928185,16.412558996187375c0.24346425760950738,1.124827894727664 -0.08299580824459572,2.442391127943562 -1.0888064896806882,2.572360883784752c-1.0058138593228152,0.12996975584118964 -1.921372557830515,-0.8266983341926765 -2.164834696848874,-1.9515180441691933c-0.24346425760950738,-1.124827894727664 0.2773606566907941,-1.991855771722814 1.283176634604758,-2.1218263460391182c1.0058128000272408,-0.12996975584118964 1.727001353610871,0.37616215949681353 1.970464551924804,1.5009835064235597z" fill-rule="evenodd"/></g><rect fill="rgb(0, 0, 0)" fill-opacity="0" stroke="none" stroke-opacity="0" stroke-width="1" stroke-linecap="butt" stroke-linejoin="miter" stroke-miterlimit="4" x="803" y="328" width="69" height="49" ry="0" rx="0" fill-rule="evenodd"/><g transform="matrix(1.00000000,0.00000000,0.00000000,1.00000000,803.00000000,328.00000000)"><g class="shapebase"/></g></g><g class="shapebase"><g transform="matrix(1.00000000,0.00000000,0.00000000,1.00000000,1103.00000000,296.00000000)"><path fill="rgb(204, 204, 255)" fill-opacity="0" stroke="rgb(51, 51, 51)" stroke-opacity="1" stroke-width="3.0" stroke-linecap="butt" stroke-linejoin="miter" stroke-miterlimit="4" path="" stroke-dasharray="none" d="m0.18444520166501796,10.85075343655969l0,34.1925309318896c0,0 13.873543537097387,10.773282460928733 34.21964090732371,9.836137878339406c20.346096049260034,-0.9370107812497227 30.981737220777,-8.430688607134625 30.981737220777,-8.430688607134625l0,-34.1925309318896" fill-rule="evenodd"/><path fill="rgb(204, 204, 255)" fill-opacity="0" stroke="rgb(51, 51, 51)" stroke-opacity="1" stroke-width="3.0" stroke-linecap="butt" stroke-linejoin="miter" stroke-miterlimit="4" path="" stroke-dasharray="none" d="m34.40222618845685,0.546310869604829c39.6248209565297,3.5417214593288815 44.39245644188724,18.736067783466716 0,19.672677160697624c-44.39199146175427,0.9375459866081403 -47.16567721288122,-23.887553159576324 0,-19.672677160697624z" fill-rule="evenodd"/></g><rect fill="rgb(0, 0, 0)" fill-opacity="0" stroke="none" stroke-opacity="0" stroke-width="1" stroke-linecap="butt" stroke-linejoin="miter" stroke-miterlimit="4" x="1103" y="296" width="66" height="55" ry="0" rx="0" fill-rule="evenodd"/><g transform="matrix(1.00000000,0.00000000,0.00000000,1.00000000,1103.00000000,296.00000000)"><g class="shapebase"><text fill="rgb(51, 51, 51)" fill-opacity="1" stroke="none" stroke-opacity="0" stroke-width="1" stroke-linecap="butt" stroke-linejoin="miter" stroke-miterlimit="4" x="33" y="40" text-anchor="middle" text-decoration="none" rotate="0" kerning="auto" text-rendering="auto" fill-rule="evenodd" font-style="normal" font-variant="normal" font-weight="bold" font-size="12px" font-family="arial,helvetica,sans-serif">DB</text></g></g></g><g class="shapebase"><g transform="matrix(1.00000000,0.00000000,0.00000000,1.00000000,1042.00000000,312.00000000)"><path fill="rgb(204, 204, 255)" fill-opacity="0" stroke="rgb(51, 51, 51)" stroke-opacity="1" stroke-width="3.0" stroke-linecap="butt" stroke-linejoin="miter" stroke-miterlimit="4" path="" stroke-dasharray="none" d="m24.950336947661658,13.48714330776677c-0.6562601232054366,9.240001417675133 -15.766193978899691,16.35786505366025 -22.024228950372063,7.378639023020686c-6.256876984212547,-8.975464605411005 -1.9691476930928604,-19.247926961892013 8.030554407567656,-20.66939369325251c9.997029822368612,-1.4227440067723351 14.575817971528831,5.097515653060458 13.993674542804408,13.290754670231825z" fill-rule="evenodd"/><path fill="rgb(51, 51, 51)" fill-opacity="1" stroke="rgb(51, 51, 51)" stroke-opacity="1" stroke-width="3.0" stroke-linecap="butt" stroke-linejoin="miter" stroke-miterlimit="4" path="" stroke-dasharray="none" style="stroke:none;" d="m5.610627344051808,9.819089928999174c1.1800450345928721,-5.88270814087877 10.969316698624421,-5.155153963180434 13.480294068890268,-0.14301461697889645c2.5109406379181927,5.010489951181528 -0.008264778222390195,8.382497038430781 -5.5514790812402355,9.30644991095077c-5.816420321789324,0.9706488547023385 -9.250904010625051,-2.575057631270019 -7.928814987650034,-9.163435293971874z" fill-rule="evenodd"/></g><rect fill="rgb(0, 0, 0)" fill-opacity="0" stroke="none" stroke-opacity="0" stroke-width="1" stroke-linecap="butt" stroke-linejoin="miter" stroke-miterlimit="4" x="1042" y="312" width="25" height="25" ry="0" rx="0" fill-rule="evenodd"/><g transform="matrix(1.00000000,0.00000000,0.00000000,1.00000000,1042.00000000,312.00000000)"><g class="shapebase"/></g></g><g class="shapebase"><g transform="matrix(1.00000000,0.00000000,0.00000000,1.00000000,747.00000000,590.00000000)"><path fill="rgb(204, 204, 255)" fill-opacity="0" stroke="rgb(51, 51, 51)" stroke-opacity="1" stroke-width="3.0" stroke-linecap="butt" stroke-linejoin="miter" stroke-miterlimit="4" path="" stroke-dasharray="none" d="m106.2528767516498,0.12540526220229062c-9.714567920891808,0 -18.30952538565718,7.132840105203633 -23.589708138455435,18.087926997901757c-9.880619914854869,-7.475922501481269 -23.080074370083445,-11.814099738229897 -35.88567534853516,-10.83131849918142c-19.05387738153567,1.462985709184272 -30.77460199133949,14.20654172886345 -28.503203179864084,29.60197814562028c-12.448085471980685,6.614295946274121 -19.42176800504574,14.855454558267681 -17.820591730024926,23.009938333248584c1.3102720272207533,6.672800801229967 8.152085319079408,12.20568096959503 18.529507939687935,16.05820982777289c-3.024842818131105,7.044686806152382 -3.0758362677713156,14.398794596096518 0.5133527716777752,20.800535223214716c7.9224293467465525,14.130638543846274 30.751846903727287,18.406324358356414 51.6771046953441,9.951026360737004c0.4129497066893041,0.7950614420301728 0.838660306123249,1.580135344967477 1.2956065236187033,2.3529591338707045c10.981484990437329,18.573258563178538 30.54750220726263,23.278860017625963 43.68370353348988,10.507904928238672c4.2749692393284136,-4.156115197138735 7.3261859057007985,-9.662567856563903 9.14253308627049,-15.824876836753136c7.796875394172611,14.193499581594413 24.069920681214295,16.838758580827783 38.305784170903536,5.388835724033336c3.8881578105901315,-3.1273960304624713 7.258722584277835,-7.005692369884427 10.022563545070199,-11.352291560031484c3.2856542143841048,3.796452905142566 6.857000057379573,7.10947512477226 10.609233810490554,9.753783684123675c18.74212265698081,13.2079726273314 35.1166135328487,4.747816825870891 36.59459155819816,-18.896513727474293c0.26618440372442725,-4.258287484448812 0.039595857298768085,-8.709276654963839 -0.6355786673850864,-13.238254698014774c13.247671182724037,-4.504504216090615 21.205185466317598,-10.559149478540702 20.582929050666706,-16.974117060682758c-0.47653864865759143,-4.913298969762249 -5.914618653668894,-9.29889259617726 -14.740485124225945,-12.717466444919536c4.260975361660291,-5.839687442481445 7.2487985592839665,-11.61123362564834 8.555862820850136,-16.88469650845557c4.653024470256448,-18.772930141712415 -13.97678629174325,-24.154505561091938 -41.63033254384947,-12.016649037517471c-1.2193268587794688,0.5351451755343137 -2.4304087573998903,1.104611791250307 -3.6423377066384757,1.688419488740676c-10.053287925480511,-17.422883091612135 -36.192417939254725,-21.5596726778178 -58.839945159352894,-9.16078840110775c-1.4781985592382123,0.8092441171575561 -2.904100514039039,1.6631219472159948 -4.277936422558904,2.5685637809812323c-5.206454264081179,-7.350860453680795 -12.225246001663821,-11.873079813126722 -19.94734035901395,-11.873079813126722z" fill-rule="evenodd"/></g><rect fill="rgb(0, 0, 0)" fill-opacity="0" stroke="none" stroke-opacity="0" stroke-width="1" stroke-linecap="butt" stroke-linejoin="miter" stroke-miterlimit="4" x="747" y="590" width="241" height="127" ry="0" rx="0" fill-rule="evenodd"/><g transform="matrix(1.00000000,0.00000000,0.00000000,1.00000000,747.00000000,590.00000000)"><g class="shapebase"/></g></g><g class="shapebase"><g transform="matrix(1.00000000,0.00000000,0.00000000,1.00000000,811.00000000,644.00000000)"/><rect fill="rgb(0, 0, 0)" fill-opacity="0" stroke="none" stroke-opacity="0" stroke-width="1" stroke-linecap="butt" stroke-linejoin="miter" stroke-miterlimit="4" x="811" y="644" width="100" height="51" ry="4" rx="4" fill-rule="evenodd"/><g transform="matrix(1.00000000,0.00000000,0.00000000,1.00000000,811.00000000,644.00000000)"><g class="shapebase"><text fill="rgb(51, 51, 51)" fill-opacity="1" stroke="none" stroke-opacity="0" stroke-width="1" stroke-linecap="butt" stroke-linejoin="miter" stroke-miterlimit="4" x="0" y="21" text-anchor="start" text-decoration="none" rotate="0" kerning="auto" text-rendering="auto" fill-rule="evenodd" font-style="normal" font-variant="normal" font-weight="Normal" font-size="12px" font-family="arial,helvetica,sans-serif"><tspan x="0" font-weight="bold">Customer</tspan><tspan x="0" dy="17" font-weight="bold">Data</tspan></text></g></g></g><g class="shapebase"><g transform="matrix(1.00000000,0.00000000,0.00000000,1.00000000,887.00000000,622.00000000)"><path fill="rgb(204, 204, 255)" fill-opacity="0" stroke="rgb(51, 51, 51)" stroke-opacity="1" stroke-width="3.0" stroke-linecap="butt" stroke-linejoin="miter" stroke-miterlimit="4" path="" stroke-dasharray="none" d="m0.18165057739736618,10.85075343655969l0,34.1925309318896c0,0 13.663338331989852,10.773282460928733 33.70116149963699,9.836137878339406c20.037821866695488,-0.9370107812497227 30.512316959856136,-8.430688607134625 30.512316959856136,-8.430688607134625l0,-34.1925309318896" fill-rule="evenodd"/><path fill="rgb(204, 204, 255)" fill-opacity="0" stroke="rgb(51, 51, 51)" stroke-opacity="1" stroke-width="3.0" stroke-linecap="butt" stroke-linejoin="miter" stroke-miterlimit="4" path="" stroke-dasharray="none" d="m33.8809803371166,0.546310869604829c39.02444488143077,3.5417214593288815 43.71984346549501,18.736067783466716 0,19.672677160697624c-43.719385530515574,0.9375459866081403 -46.45104573995878,-23.887553159576324 0,-19.672677160697624z" fill-rule="evenodd"/></g><rect fill="rgb(0, 0, 0)" fill-opacity="0" stroke="none" stroke-opacity="0" stroke-width="1" stroke-linecap="butt" stroke-linejoin="miter" stroke-miterlimit="4" x="887" y="622" width="65" height="55" ry="0" rx="0" fill-rule="evenodd"/><g transform="matrix(1.00000000,0.00000000,0.00000000,1.00000000,887.00000000,622.00000000)"><g class="shapebase"><text fill="rgb(51, 51, 51)" fill-opacity="1" stroke="none" stroke-opacity="0" stroke-width="1" stroke-linecap="butt" stroke-linejoin="miter" stroke-miterlimit="4" x="32" y="40" text-anchor="middle" text-decoration="none" rotate="0" kerning="auto" text-rendering="auto" fill-rule="evenodd" font-style="normal" font-variant="normal" font-weight="bold" font-size="12px" font-family="arial,helvetica,sans-serif">Db</text></g></g></g><g class="shapebase"><g transform="matrix(1.00000000,0.00000000,0.00000000,1.00000000,781.00000000,627.00000000)"><path fill="rgb(204, 204, 255)" fill-opacity="0" stroke="rgb(51, 51, 51)" stroke-opacity="1" stroke-width="3.0" stroke-linecap="butt" stroke-linejoin="miter" stroke-miterlimit="4" path="" stroke-dasharray="none" d="m24.950336947661658,13.48714330776677c-0.6562601232054366,9.240001417675133 -15.766193978899691,16.35786505366025 -22.024228950372063,7.378639023020686c-6.256876984212547,-8.975464605411005 -1.9691476930928604,-19.247926961892013 8.030554407567656,-20.66939369325251c9.997029822368612,-1.4227440067723351 14.575817971528831,5.097515653060458 13.993674542804408,13.290754670231825z" fill-rule="evenodd"/><path fill="rgb(51, 51, 51)" fill-opacity="1" stroke="rgb(51, 51, 51)" stroke-opacity="1" stroke-width="3.0" stroke-linecap="butt" stroke-linejoin="miter" stroke-miterlimit="4" path="" stroke-dasharray="none" style="stroke:none;" d="m5.610627344051808,9.819089928999174c1.1800450345928721,-5.88270814087877 10.969316698624421,-5.155153963180434 13.480294068890268,-0.14301461697889645c2.5109406379181927,5.010489951181528 -0.008264778222390195,8.382497038430781 -5.5514790812402355,9.30644991095077c-5.816420321789324,0.9706488547023385 -9.250904010625051,-2.575057631270019 -7.928814987650034,-9.163435293971874z" fill-rule="evenodd"/></g><rect fill="rgb(0, 0, 0)" fill-opacity="0" stroke="none" stroke-opacity="0" stroke-width="1" stroke-linecap="butt" stroke-linejoin="miter" stroke-miterlimit="4" x="781" y="627" width="25" height="25" ry="0" rx="0" fill-rule="evenodd"/><g transform="matrix(1.00000000,0.00000000,0.00000000,1.00000000,781.00000000,627.00000000)"><g class="shapebase"/></g></g><g class="shapebase"><g transform="matrix(0.47000000,0.00000000,0.00000000,0.39000000,828.00000000,601.00000000)"><path fill="rgb(51, 51, 51)" fill-opacity="1" stroke="rgb(51, 51, 51)" stroke-opacity="1" stroke-width="3.0" stroke-linecap="butt" stroke-linejoin="miter" stroke-miterlimit="4" path="" stroke-dasharray="none" style="stroke:none;" d="m35.708,36.622c3.365,2.385 7.176,3.646 11.021,3.646c5.032,0 9.986,-2.115 13.951,-5.955c1.056,-1.023 2.16,-2.218 2.457,-2.572c0.133,-0.159 0.254,-0.341 0.36,-0.542c3.809,-7.197 3.171,-14.643 -1.752,-20.429c-1.161,-1.365 -2.193,-2.525 -2.568,-2.887c-0.197,-0.189 -0.438,-0.359 -0.718,-0.503c-3.421,-1.76 -6.886,-2.652 -10.3,-2.652c-4.694,0 -9.223,1.663 -13.462,4.942c-0.197,0.152 -0.366,0.318 -0.502,0.493c-0.303,0.391 -1.281,1.728 -2.146,2.997c-5.648,8.284 -4.143,17.932 3.659,23.462zm2.56,-22.243c0.09,-0.095 0.17,-0.194 0.242,-0.293c0.291,-0.404 1.547,-1.496 3.01,-2.23c3.209,-1.612 6.799,-1.959 10.377,-1.004c1.673,0.446 3.986,1.875 5.156,3.185c3.025,3.388 3.981,7.331 2.764,11.402c-0.459,1.534 -1.199,2.884 -1.451,3.147c-2.784,3.739 -6.671,5.763 -11.003,5.763c-5.289,0 -10.306,-3.075 -12.201,-7.477c-1.019,-2.365 -1.968,-7.132 3.106,-12.493z" fill-rule="evenodd"/><path fill="rgb(51, 51, 51)" fill-opacity="1" stroke="rgb(51, 51, 51)" stroke-opacity="1" stroke-width="3.0" stroke-linecap="butt" stroke-linejoin="miter" stroke-miterlimit="4" path="" stroke-dasharray="none" style="stroke:none;" d="m83.567,51.471c-0.006,-0.371 -0.1,-0.762 -0.335,-1.161c-2.478,-4.203 -6.76,-6.125 -11.565,-5.537c-0.043,0.005 -0.08,0.02 -0.122,0.027c-0.091,-0.009 -0.177,-0.027 -0.274,-0.027c-16.644,0 -33.406,-0.783 -49.986,0.978c-0.3,-0.034 -0.626,-0.01 -0.979,0.098c-3.401,1.038 -6.286,3.373 -7.762,6.641c-0.136,0.302 -0.224,0.616 -0.262,0.928c-0.155,0.301 -0.253,0.653 -0.261,1.065c-0.223,11.368 -0.696,22.722 0,34.084c0.06,0.978 0.593,1.64 1.281,1.992c0.352,0.334 0.833,0.556 1.461,0.556c4.498,0 8.996,-0.019 13.49,-0.227c0.009,1.509 0.016,2.909 0.019,4.117c0.001,0.419 0.096,0.776 0.25,1.081c0.271,0.771 0.937,1.387 2,1.389c12.718,0.015 25.434,0.262 38.152,0.276c1.99,0.002 2.587,-2.146 1.801,-3.449c-0.004,-0.502 -0.011,-1.035 -0.019,-1.588c3.642,-0.186 7.287,-0.216 10.935,-0.216c0.576,0 1.03,-0.186 1.373,-0.474c1.307,0.194 2.78,-0.56 2.776,-2.268c-0.025,-12.304 -0.436,-24.59 -1.387,-36.858c-0.047999,-0.590999 -0.268,-1.065 -0.586001,-1.427zm-33.433,-1.166c1.027,1.198 2.035,2.409 2.946,3.696c-0.803,1.105 -1.635,2.188 -2.46,3.277c-1.125,-0.887 -2.178,-1.869 -3.242,-2.832c0.962001,-1.352 1.898,-2.721 2.756,-4.141zm-17.116,42.757c-0.034,-7.648 -0.178,-19.958 -0.191,-26.69c-0.006,-3.067 -4.762,-3.067 -4.756,0c0.01,5.011 0.092,13.12 0.148,20.093c-3.843,0.177 -7.688,0.217 -11.535,0.223c-0.537,-10.68 -0.124,-21.353 0.089,-32.04c0.968,-1.997 2.499,-3.45 4.628,-4.152c8.176,-0.862 16.396,-1.108 24.624,-1.137c-0.797,1.235 -1.647,2.435 -2.501,3.631c-0.239,0.334 -0.32,0.732 -0.282,1.125c-0.445,0.69 -0.473,1.592 0.345,2.299c1.582,1.368 3.099,2.801 4.737,4.098c-1.781,4.884 -3.98,9.553 -6.716,13.978c-0.139,0.225 -0.217,0.447 -0.262,0.663c-0.21,0.494 -0.227,1.081 0.096,1.689c2.858,5.39 5.726,10.773 8.214,16.345c-5.547,-0.052992 -11.092,-0.105993 -16.638,-0.124998zm12.427,-17.196c2.269,-3.76 4.152,-7.708 5.767,-11.782c1.685,3.668 3.22,7.388 4.359,11.281c0.005,0.017 0.014,0.031 0.019,0.048c-0.005,0.02 -0.014,0.035 -0.019,0.056c-1.032,4.33 -2.411,8.555 -3.798,12.779c-1.986,-4.189 -4.155,-8.286 -6.328,-12.382zm24.918,12.429c-0.187,-7.429 -0.565,-16.745 -0.876,-22.318c-0.171,-3.049 -4.927,-3.066 -4.756,0c0.387,6.926 0.88,19.658 0.976,27.335c-3.784,-0.014 -7.568,-0.052 -11.352,-0.088c1.781,-5.539 3.722,-11.026 5.073,-16.693c0.09,-0.379 0.07,-0.721 -0.017,-1.027c0.127,-0.345 0.15,-0.75 0.017,-1.203c-1.462,-4.996 -3.555,-9.739 -5.788,-14.428c1.025,-1.374 2.084,-2.723 3.086,-4.115c0.096,-0.133 0.159,-0.278 0.206,-0.427c0.605,-0.558 0.875,-1.433 0.294,-2.342c-0.802,-1.256 -1.709,-2.437 -2.652,-3.59c5.504,0.049 11.006,0.126 16.495,0.128c0.185,0.022 0.381,0.027 0.597,0.001c3.17,-0.388 5.772,0.322 7.458,3.182c0.086,0.146 0.183,0.271 0.283,0.387c0.898,11.643 1.299,23.302 1.357,34.977c-3.468,0.005006 -6.936,0.041002 -10.401,0.221002z" fill-rule="evenodd"/></g><rect fill="rgb(0, 0, 0)" fill-opacity="0" stroke="none" stroke-opacity="0" stroke-width="1" stroke-linecap="butt" stroke-linejoin="miter" stroke-miterlimit="4" x="828" y="601" width="47" height="39" ry="0" rx="0" fill-rule="evenodd"/><g transform="matrix(1.00000000,0.00000000,0.00000000,1.00000000,828.00000000,601.00000000)"><g class="shapebase"/></g></g><g class="shapebase"><g transform="matrix(1.00000000,0.00000000,0.00000000,1.00000000,518.00000000,321.00000000)"><path fill="rgb(204, 204, 255)" fill-opacity="0" stroke="rgb(51, 51, 51)" stroke-opacity="1" stroke-width="3.0" stroke-linecap="butt" stroke-linejoin="miter" stroke-miterlimit="4" path="" stroke-dasharray="none" d="m0.060023394922443934,17.141985614391558l1.4320060967805082,75.72197350729635l31.51941961905942,17.0986768156381l-1.4329608548751809,-73.27984400780397" fill-rule="evenodd"/><path fill="rgb(204, 204, 255)" fill-opacity="0" stroke="rgb(51, 51, 51)" stroke-opacity="1" stroke-width="3.0" stroke-linecap="butt" stroke-linejoin="miter" stroke-miterlimit="4" path="" stroke-dasharray="none" d="m73.12695835222047,0.045882191217386924c0,0 -68.76996190886182,10.991557676816003 -70.20186504153408,14.656327879579017c-1.4329655350619195,3.6640520467265687 28.653507269682535,21.984352177916993 28.653507269682535,21.984352177916993l77.36372079826467,-20.76268896480709l-35.81559703575005,-15.87805093902529z" fill-rule="evenodd"/><path fill="rgb(204, 204, 255)" fill-opacity="0" stroke="rgb(51, 51, 51)" stroke-opacity="1" stroke-width="3.0" stroke-linecap="butt" stroke-linejoin="miter" stroke-miterlimit="4" path="" stroke-dasharray="none" d="m108.9423213786336,15.925110108191294l-1.4320014165937696,75.72177401950846l-74.49874448623551,18.320399875084373l-1.5723555366974085,-73.27984400780397" fill-rule="evenodd"/><path fill="rgb(204, 204, 255)" fill-opacity="0" stroke="rgb(51, 51, 51)" stroke-opacity="1" stroke-width="3.0" stroke-linecap="butt" stroke-linejoin="miter" stroke-miterlimit="4" path="" stroke-dasharray="none" d="m11.520864680386827,45.22986615094842l10.028844549057352,6.106879753476619" fill-rule="evenodd"/></g><rect fill="rgb(0, 0, 0)" fill-opacity="0" stroke="none" stroke-opacity="0" stroke-width="1" stroke-linecap="butt" stroke-linejoin="miter" stroke-miterlimit="4" x="518" y="321" width="109" height="110" ry="0" rx="0" fill-rule="evenodd"/><g transform="matrix(1.00000000,0.00000000,0.00000000,1.00000000,518.00000000,321.00000000)"><g class="shapebase"><text fill="rgb(51, 51, 51)" fill-opacity="1" stroke="none" stroke-opacity="0" stroke-width="1" stroke-linecap="butt" stroke-linejoin="miter" stroke-miterlimit="4" x="54" y="125" text-anchor="middle" text-decoration="none" rotate="0" kerning="auto" text-rendering="auto" fill-rule="evenodd" font-style="normal" font-variant="normal" font-weight="bold" font-size="12px" font-family="arial,helvetica,sans-serif">Web Server</text></g></g></g><g class="shapebase"><g transform="matrix(1.00000000,0.00000000,0.00000000,1.00000000,576.00000000,371.00000000)"><path fill="rgb(204, 204, 255)" fill-opacity="0" stroke="rgb(51, 51, 51)" stroke-opacity="1" stroke-width="3.0" stroke-linecap="butt" stroke-linejoin="miter" stroke-miterlimit="4" path="" stroke-dasharray="none" d="m24.950336947661658,13.48714330776677c-0.6562601232054366,9.240001417675133 -15.766193978899691,16.35786505366025 -22.024228950372063,7.378639023020686c-6.256876984212547,-8.975464605411005 -1.9691476930928604,-19.247926961892013 8.030554407567656,-20.66939369325251c9.997029822368612,-1.4227440067723351 14.575817971528831,5.097515653060458 13.993674542804408,13.290754670231825z" fill-rule="evenodd"/><path fill="rgb(51, 51, 51)" fill-opacity="1" stroke="rgb(51, 51, 51)" stroke-opacity="1" stroke-width="3.0" stroke-linecap="butt" stroke-linejoin="miter" stroke-miterlimit="4" path="" stroke-dasharray="none" style="stroke:none;" d="m5.610627344051808,9.819089928999174c1.1800450345928721,-5.88270814087877 10.969316698624421,-5.155153963180434 13.480294068890268,-0.14301461697889645c2.5109406379181927,5.010489951181528 -0.008264778222390195,8.382497038430781 -5.5514790812402355,9.30644991095077c-5.816420321789324,0.9706488547023385 -9.250904010625051,-2.575057631270019 -7.928814987650034,-9.163435293971874z" fill-rule="evenodd"/></g><rect fill="rgb(0, 0, 0)" fill-opacity="0" stroke="none" stroke-opacity="0" stroke-width="1" stroke-linecap="butt" stroke-linejoin="miter" stroke-miterlimit="4" x="576" y="371" width="25" height="25" ry="0" rx="0" fill-rule="evenodd"/><g transform="matrix(1.00000000,0.00000000,0.00000000,1.00000000,576.00000000,371.00000000)"><g class="shapebase"/></g></g><g class="shapebase"><g transform="matrix(1.00000000,0.00000000,0.00000000,1.00000000,443.00000000,468.00000000)"><path fill="rgb(204, 204, 255)" fill-opacity="0" stroke="rgb(51, 51, 51)" stroke-opacity="1" stroke-width="3.0" stroke-linecap="butt" stroke-linejoin="miter" stroke-miterlimit="4" path="" stroke-dasharray="none" d="m122.56555907451718,0.1629280965620311c-11.20601610791669,0 -21.120531357729032,9.267075727233067 -27.21136457464984,23.500062635069213c-11.397561561533832,-9.712812698774876 -26.62348827752364,-15.349027218960103 -41.395094385447194,-14.072185451692395c-21.979161460858574,1.9007294646882273 -35.49933341739576,18.45731799419267 -32.87921362656521,38.459262945097215c-14.359202328674815,8.593376623112047 -22.403533217438657,19.30039371743439 -20.556533198949914,29.894801771543438c1.51143412268618,8.669386867739721 9.40365028507915,15.857774488056533 21.374287166942928,20.86302851639785c-3.4892377736118143,9.152545850512936 -3.5480600931137998,18.70709534138524 0.5921662677444876,27.02431741598762c9.138735926952455,18.35870361995776 35.47308481010866,23.91372849707723 59.61093404691145,12.928498815130753c0.47634862431380304,1.032953842007705 0.9674172825820051,2.0529317473986906 1.4945170687385871,3.0569941503044586c12.667439117599905,24.130611519090223 35.23736769136519,30.24418821187625 50.390330217054725,13.652002465821896c4.931292317565555,-5.399677224629065 8.450953036451544,-12.553729892386174 10.546158497855586,-20.559879354836752c8.99390605634849,18.44037347215022 27.765302694512755,21.877127290051842 44.1867551846937,7.001243263507877c4.485094901842558,-4.063152323041793 8.37313227563999,-9.101883787645122 11.561297367342387,-14.749040215788934c3.790090753521913,4.93239944368916 7.909734506022911,9.236719650294669 12.238037341561718,12.672238644727608c21.6195439777621,17.159964437084103 40.507960838721736,6.1684234351865905 42.2128483534402,-24.55058870104928c0.30705088894353016,-5.532420747512235 0.045674889332188905,-11.315201953299475 -0.7331571349919254,-17.199307284822346c15.281546011606979,-5.852308627204342 24.460753359486688,-13.718580031174927 23.742963801184,-22.05298673238311c-0.5497001839286739,-6.383419921344655 -6.822672139916816,-12.081238412356283 -17.003547155746112,-16.52269262528916c4.915150002247142,-7.58699549613731 8.36168464514914,-15.0854610097006 9.869418523636256,-21.93681042437141c5.367389222951422,-24.390027349468888 -16.12259995479097,-31.381837933702123 -48.02171139912926,-15.612181820396714c-1.4065264180111716,0.6952673540406438 -2.803542052104438,1.4351255555614224 -4.20153478193152,2.193615871198516c-11.596738768811543,-22.63602921351183 -41.74893023698263,-28.01059836094439 -67.87346371078881,-11.901811702226603c-1.7051419065071496,1.0513801522125727 -3.349958269306443,2.1607489865404657 -4.93471504344969,3.337110424109475c-6.005785416657957,-9.550330510687646 -14.102150989471129,-15.425654875322119 -23.00979510292895,-15.425654875322119z" fill-rule="evenodd"/></g><rect fill="rgb(0, 0, 0)" fill-opacity="0" stroke="none" stroke-opacity="0" stroke-width="1" stroke-linecap="butt" stroke-linejoin="miter" stroke-miterlimit="4" x="443" y="468" width="278" height="165" ry="0" rx="0" fill-rule="evenodd"/><g transform="matrix(1.00000000,0.00000000,0.00000000,1.00000000,443.00000000,468.00000000)"><g class="shapebase"/></g></g><g class="shapebase"><g transform="matrix(1.00000000,0.00000000,0.00000000,1.00000000,613.00000000,538.00000000)"/><rect fill="rgb(0, 0, 0)" fill-opacity="0" stroke="none" stroke-opacity="0" stroke-width="1" stroke-linecap="butt" stroke-linejoin="miter" stroke-miterlimit="4" x="613" y="538" width="100" height="51" ry="4" rx="4" fill-rule="evenodd"/><g transform="matrix(1.00000000,0.00000000,0.00000000,1.00000000,613.00000000,538.00000000)"><g class="shapebase"><text fill="rgb(51, 51, 51)" fill-opacity="1" stroke="none" stroke-opacity="0" stroke-width="1" stroke-linecap="butt" stroke-linejoin="miter" stroke-miterlimit="4" x="0" y="21" text-anchor="start" text-decoration="none" rotate="0" kerning="auto" text-rendering="auto" fill-rule="evenodd" font-style="normal" font-variant="normal" font-weight="Normal" font-size="12px" font-family="arial,helvetica,sans-serif"><tspan x="0" font-weight="bold">Command</tspan><tspan x="0" dy="17" font-weight="bold">Processor</tspan></text></g></g></g><g class="shapebase"><g transform="matrix(1.00000000,0.00000000,0.00000000,1.00000000,660.00000000,518.00000000)"><path fill="rgb(204, 204, 255)" fill-opacity="0" stroke="rgb(51, 51, 51)" stroke-opacity="1" stroke-width="3.0" stroke-linecap="butt" stroke-linejoin="miter" stroke-miterlimit="4" path="" stroke-dasharray="none" d="m24.950336947661658,13.48714330776677c-0.6562601232054366,9.240001417675133 -15.766193978899691,16.35786505366025 -22.024228950372063,7.378639023020686c-6.256876984212547,-8.975464605411005 -1.9691476930928604,-19.247926961892013 8.030554407567656,-20.66939369325251c9.997029822368612,-1.4227440067723351 14.575817971528831,5.097515653060458 13.993674542804408,13.290754670231825z" fill-rule="evenodd"/><path fill="rgb(51, 51, 51)" fill-opacity="1" stroke="rgb(51, 51, 51)" stroke-opacity="1" stroke-width="3.0" stroke-linecap="butt" stroke-linejoin="miter" stroke-miterlimit="4" path="" stroke-dasharray="none" style="stroke:none;" d="m5.610627344051808,9.819089928999174c1.1800450345928721,-5.88270814087877 10.969316698624421,-5.155153963180434 13.480294068890268,-0.14301461697889645c2.5109406379181927,5.010489951181528 -0.008264778222390195,8.382497038430781 -5.5514790812402355,9.30644991095077c-5.816420321789324,0.9706488547023385 -9.250904010625051,-2.575057631270019 -7.928814987650034,-9.163435293971874z" fill-rule="evenodd"/></g><rect fill="rgb(0, 0, 0)" fill-opacity="0" stroke="none" stroke-opacity="0" stroke-width="1" stroke-linecap="butt" stroke-linejoin="miter" stroke-miterlimit="4" x="660" y="518" width="25" height="25" ry="0" rx="0" fill-rule="evenodd"/><g transform="matrix(1.00000000,0.00000000,0.00000000,1.00000000,660.00000000,518.00000000)"><g class="shapebase"/></g></g><g class="shapebase"><g transform="matrix(1.00000000,0.00000000,0.00000000,1.00000000,483.00000000,528.00000000)"><path fill="rgb(204, 204, 255)" fill-opacity="0" stroke="rgb(51, 51, 51)" stroke-opacity="1" stroke-width="3.0" stroke-linecap="butt" stroke-linejoin="miter" stroke-miterlimit="4" path="" stroke-dasharray="none" d="m0.315792542244652,13.020904123871627l0,41.03103711826751c0,0 23.75318817715159,12.927938953114479 58.58817306859969,11.803365454007286c34.83498262979369,-1.124412937499667 53.04448948405759,-10.11682632856155 53.04448948405759,-10.11682632856155l0,-41.03103711826751" fill-rule="evenodd"/><path fill="rgb(204, 204, 255)" fill-opacity="0" stroke="rgb(51, 51, 51)" stroke-opacity="1" stroke-width="3.0" stroke-linecap="butt" stroke-linejoin="miter" stroke-miterlimit="4" path="" stroke-dasharray="none" d="m58.90078120144886,0.6555730435257947c67.84249648617964,4.250065751194657 76.0052663323221,22.483281340160058 0,23.607212592837147c-76.00447022997324,1.1250551839297682 -80.75335644023603,-28.665063791491587 0,-23.607212592837147z" fill-rule="evenodd"/></g><rect fill="rgb(0, 0, 0)" fill-opacity="0" stroke="none" stroke-opacity="0" stroke-width="1" stroke-linecap="butt" stroke-linejoin="miter" stroke-miterlimit="4" x="483" y="528" width="113" height="66" ry="0" rx="0" fill-rule="evenodd"/><g transform="matrix(1.00000000,0.00000000,0.00000000,1.00000000,483.00000000,528.00000000)"><g class="shapebase"><text fill="rgb(51, 51, 51)" fill-opacity="1" stroke="none" stroke-opacity="0" stroke-width="1" stroke-linecap="butt" stroke-linejoin="miter" stroke-miterlimit="4" x="56" y="46" text-anchor="middle" text-decoration="none" rotate="0" kerning="auto" text-rendering="auto" fill-rule="evenodd" font-style="normal" font-variant="normal" font-weight="bold" font-size="12px" font-family="arial,helvetica,sans-serif">Event Store</text></g></g></g><g class="shapebase"><polyline fill="rgb(255, 255, 255)" fill-opacity="0" stroke="rgb(51, 51, 51)" stroke-opacity="1" stroke-width="2" stroke-linecap="butt" stroke-linejoin="miter" stroke-miterlimit="4" points="622.15311024 370.71550637 605.00000000 381.00000000 622.48318787 390.71278240" fill-rule="evenodd" stroke-dasharray="none" dojoGfxStrokeStyle="solid" style="display: inline;"/><path fill="none" fill-opacity="0" stroke="rgb(51, 51, 51)" stroke-opacity="1" stroke-width="2" stroke-linecap="butt" stroke-linejoin="miter" stroke-miterlimit="4" path="" stroke-dasharray="none" d="M765,355 C685,355 685,381  605,381"/><path fill="none" fill-opacity="0" stroke="rgb(51, 51, 51)" stroke-opacity="0" stroke-width="10" stroke-linecap="butt" stroke-linejoin="miter" stroke-miterlimit="4" path="" stroke-dasharray="none" style="display: none;" d="M765,355 C685,355 685,381  605,381"/><polyline fill="rgb(255, 255, 255)" fill-opacity="0" stroke="rgb(51, 51, 51)" stroke-opacity="1" stroke-width="2" stroke-linecap="butt" stroke-linejoin="miter" stroke-miterlimit="4" points="747.43562338 345.43481971 765.00000000 355.00000000 747.93412257 365.42860621" stroke-dasharray="none" dojoGfxStrokeStyle="solid" fill-rule="evenodd" style="display: inline;"/><path fill="rgb(250, 250, 250)" fill-opacity="1" stroke="rgb(51, 51, 51)" stroke-opacity="1" stroke-width="2" stroke-linecap="butt" stroke-linejoin="miter" stroke-miterlimit="4" path="" stroke-dasharray="none" fill-rule="evenodd" style="display: none;"/><path fill="rgb(250, 250, 250)" fill-opacity="1" stroke="rgb(51, 51, 51)" stroke-opacity="1" stroke-width="2" stroke-linecap="butt" stroke-linejoin="miter" stroke-miterlimit="4" path="" fill-rule="evenodd" stroke-dasharray="none" style="display: none;"/></g><g class="shapebase"><polyline fill="rgb(255, 255, 255)" fill-opacity="0" stroke="rgb(255, 0, 0)" stroke-opacity="0.85" stroke-width="2" stroke-linecap="butt" stroke-linejoin="miter" stroke-miterlimit="4" points="813.21416041 506.87361896 830.00000000 496.00000000 812.19024996 486.89984597" fill-rule="evenodd" stroke-dasharray="none" dojoGfxStrokeStyle="solid" style="display: inline;"/><path fill="none" fill-opacity="0" stroke="rgb(255, 0, 0)" stroke-opacity="0.85" stroke-width="2" stroke-linecap="butt" stroke-linejoin="miter" stroke-miterlimit="4" path="" stroke-dasharray="none" d="M723,550 C776.5,550 776.5,496  830,496"/><path fill="none" fill-opacity="0" stroke="rgb(51, 51, 51)" stroke-opacity="0" stroke-width="10" stroke-linecap="butt" stroke-linejoin="miter" stroke-miterlimit="4" path="" stroke-dasharray="none" style="display: none;" d="M723,550 C776.5,550 776.5,496  830,496"/><path fill="rgb(250, 250, 250)" fill-opacity="1" stroke="rgb(255, 0, 0)" stroke-opacity="0.85" stroke-width="2" stroke-linecap="butt" stroke-linejoin="miter" stroke-miterlimit="4" path="" stroke-dasharray="none" fill-rule="evenodd" style="display: none;"/><path fill="rgb(250, 250, 250)" fill-opacity="1" stroke="rgb(255, 0, 0)" stroke-opacity="0.85" stroke-width="2" stroke-linecap="butt" stroke-linejoin="miter" stroke-miterlimit="4" path="" fill-rule="evenodd" stroke-dasharray="none" style="display: none;"/></g><g class="shapebase"><polyline fill="rgb(255, 255, 255)" fill-opacity="0" stroke="rgb(255, 0, 0)" stroke-opacity="0.85" stroke-width="2" stroke-linecap="butt" stroke-linejoin="miter" stroke-miterlimit="4" points="945.53887555 568.95403639 956.00000000 586.00000000 965.53167529 568.41741867" fill-rule="evenodd" stroke-dasharray="none" dojoGfxStrokeStyle="solid" style="display: inline;"/><path fill="none" fill-opacity="0" stroke="rgb(255, 0, 0)" stroke-opacity="0.85" stroke-width="2" stroke-linecap="butt" stroke-linejoin="miter" stroke-miterlimit="4" path="" stroke-dasharray="none" d="M920,520 C938,520 956,553  956,586"/><path fill="none" fill-opacity="0" stroke="rgb(51, 51, 51)" stroke-opacity="0" stroke-width="10" stroke-linecap="butt" stroke-linejoin="miter" stroke-miterlimit="4" path="" stroke-dasharray="none" style="display: none;" d="M920,520 C938,520 956,553  956,586"/><path fill="rgb(250, 250, 250)" fill-opacity="1" stroke="rgb(255, 0, 0)" stroke-opacity="0.85" stroke-width="2" stroke-linecap="butt" stroke-linejoin="miter" stroke-miterlimit="4" path="" stroke-dasharray="none" fill-rule="evenodd" style="display: none;"/><path fill="rgb(250, 250, 250)" fill-opacity="1" stroke="rgb(255, 0, 0)" stroke-opacity="0.85" stroke-width="2" stroke-linecap="butt" stroke-linejoin="miter" stroke-miterlimit="4" path="" fill-rule="evenodd" stroke-dasharray="none" style="display: none;"/></g><g class="shapebase"><polyline fill="rgb(255, 255, 255)" fill-opacity="0" stroke="rgb(255, 0, 0)" stroke-opacity="0.85" stroke-width="2" stroke-linecap="butt" stroke-linejoin="miter" stroke-miterlimit="4" points="992.42582841 528.54717198 1010.00000000 519.00000000 992.94482073 508.55390694" fill-rule="evenodd" stroke-dasharray="none" dojoGfxStrokeStyle="solid" style="display: inline;"/><path fill="none" fill-opacity="0" stroke="rgb(255, 0, 0)" stroke-opacity="0.85" stroke-width="2" stroke-linecap="butt" stroke-linejoin="miter" stroke-miterlimit="4" path="" stroke-dasharray="none" d="M920,496 C965,496 965,519  1010,519"/><path fill="none" fill-opacity="0" stroke="rgb(51, 51, 51)" stroke-opacity="0" stroke-width="10" stroke-linecap="butt" stroke-linejoin="miter" stroke-miterlimit="4" path="" stroke-dasharray="none" style="display: none;" d="M920,496 C965,496 965,519  1010,519"/><path fill="rgb(250, 250, 250)" fill-opacity="1" stroke="rgb(255, 0, 0)" stroke-opacity="0.85" stroke-width="2" stroke-linecap="butt" stroke-linejoin="miter" stroke-miterlimit="4" path="" stroke-dasharray="none" fill-rule="evenodd" style="display: none;"/><path fill="rgb(250, 250, 250)" fill-opacity="1" stroke="rgb(255, 0, 0)" stroke-opacity="0.85" stroke-width="2" stroke-linecap="butt" stroke-linejoin="miter" stroke-miterlimit="4" path="" fill-rule="evenodd" stroke-dasharray="none" style="display: none;"/></g><g class="shapebase"><polyline fill="rgb(255, 255, 255)" fill-opacity="0" stroke="rgb(255, 0, 0)" stroke-opacity="0.85" stroke-width="2" stroke-linecap="butt" stroke-linejoin="miter" stroke-miterlimit="4" points="1062.54342345 412.08341549 1054.00000000 394.00000000 1042.61101453 410.44052949" fill-rule="evenodd" stroke-dasharray="none" dojoGfxStrokeStyle="solid" style="display: inline;"/><path fill="none" fill-opacity="0" stroke="rgb(255, 0, 0)" stroke-opacity="0.85" stroke-width="2" stroke-linecap="butt" stroke-linejoin="miter" stroke-miterlimit="4" path="" stroke-dasharray="none" d="M920,474 C987,474 1054,434  1054,394"/><path fill="none" fill-opacity="0" stroke="rgb(51, 51, 51)" stroke-opacity="0" stroke-width="10" stroke-linecap="butt" stroke-linejoin="miter" stroke-miterlimit="4" path="" stroke-dasharray="none" style="display: none;" d="M920,474 C987,474 1054,434  1054,394"/><path fill="rgb(250, 250, 250)" fill-opacity="1" stroke="rgb(255, 0, 0)" stroke-opacity="0.85" stroke-width="2" stroke-linecap="butt" stroke-linejoin="miter" stroke-miterlimit="4" path="" stroke-dasharray="none" fill-rule="evenodd" style="display: none;"/><path fill="rgb(250, 250, 250)" fill-opacity="1" stroke="rgb(255, 0, 0)" stroke-opacity="0.85" stroke-width="2" stroke-linecap="butt" stroke-linejoin="miter" stroke-miterlimit="4" path="" fill-rule="evenodd" stroke-dasharray="none" style="display: none;"/></g><g class="shapebase"><polyline fill="rgb(255, 255, 255)" fill-opacity="0" stroke="rgb(51, 51, 51)" stroke-opacity="1" stroke-width="2" stroke-linecap="butt" stroke-linejoin="miter" stroke-miterlimit="4" points="669.70600848 494.13199550 672.00000000 514.00000000 688.05920086 502.07934282" fill-rule="evenodd" stroke-dasharray="none" dojoGfxStrokeStyle="solid" style="display: inline;"/><path fill="none" fill-opacity="0" stroke="rgb(51, 51, 51)" stroke-opacity="1" stroke-width="2" stroke-linecap="butt" stroke-linejoin="miter" stroke-miterlimit="4" path="" stroke-dasharray="none" d="M765,387 C765,387 734.5478346446722,407.17639846263813 723,421 700.3334515982344,448.1335140287877 672,514 672,514"/><path fill="none" fill-opacity="0" stroke="rgb(51, 51, 51)" stroke-opacity="0" stroke-width="10" stroke-linecap="butt" stroke-linejoin="miter" stroke-miterlimit="4" path="" stroke-dasharray="none" style="display: none;" d="M765,387 C765,387 734.5478346446722,407.17639846263813 723,421 700.3334515982344,448.1335140287877 672,514 672,514"/><polyline fill="rgb(255, 255, 255)" fill-opacity="0" stroke="rgb(51, 51, 51)" stroke-opacity="1" stroke-width="2" stroke-linecap="butt" stroke-linejoin="miter" stroke-miterlimit="4" points="745.07566936 388.73811639 765.00000000 387.00000000 756.54308762 405.12403468" stroke-dasharray="none" dojoGfxStrokeStyle="solid" fill-rule="evenodd" style="display: inline;"/><path fill="rgb(250, 250, 250)" fill-opacity="1" stroke="rgb(51, 51, 51)" stroke-opacity="1" stroke-width="2" stroke-linecap="butt" stroke-linejoin="miter" stroke-miterlimit="4" path="" stroke-dasharray="none" fill-rule="evenodd" style="display: none;"/><path fill="rgb(250, 250, 250)" fill-opacity="1" stroke="rgb(51, 51, 51)" stroke-opacity="1" stroke-width="2" stroke-linecap="butt" stroke-linejoin="miter" stroke-miterlimit="4" path="" fill-rule="evenodd" stroke-dasharray="none" style="display: none;"/></g><g class="shapebase"><polyline fill="rgb(255, 255, 255)" fill-opacity="0" stroke="rgb(51, 51, 51)" stroke-opacity="1" stroke-width="2" stroke-linecap="butt" stroke-linejoin="miter" stroke-miterlimit="4" points="1020.93066100 334.42293942 1038.00000000 324.00000000 1020.43880018 314.42898851" fill-rule="evenodd" stroke-dasharray="none" dojoGfxStrokeStyle="solid" style="display: inline;"/><path fill="none" fill-opacity="0" stroke="rgb(51, 51, 51)" stroke-opacity="1" stroke-width="2" stroke-linecap="butt" stroke-linejoin="miter" stroke-miterlimit="4" path="" stroke-dasharray="none" d="M910,355 C974,355 974,324  1038,324"/><path fill="none" fill-opacity="0" stroke="rgb(51, 51, 51)" stroke-opacity="0" stroke-width="10" stroke-linecap="butt" stroke-linejoin="miter" stroke-miterlimit="4" path="" stroke-dasharray="none" style="display: none;" d="M910,355 C974,355 974,324  1038,324"/><polyline fill="rgb(255, 255, 255)" fill-opacity="0" stroke="rgb(51, 51, 51)" stroke-opacity="1" stroke-width="2" stroke-linecap="butt" stroke-linejoin="miter" stroke-miterlimit="4" points="927.79701937 364.12502611 910.00000000 355.00000000 926.80101411 344.14984217" stroke-dasharray="none" dojoGfxStrokeStyle="solid" fill-rule="evenodd" style="display: inline;"/><path fill="rgb(250, 250, 250)" fill-opacity="1" stroke="rgb(51, 51, 51)" stroke-opacity="1" stroke-width="2" stroke-linecap="butt" stroke-linejoin="miter" stroke-miterlimit="4" path="" stroke-dasharray="none" fill-rule="evenodd" style="display: none;"/><path fill="rgb(250, 250, 250)" fill-opacity="1" stroke="rgb(51, 51, 51)" stroke-opacity="1" stroke-width="2" stroke-linecap="butt" stroke-linejoin="miter" stroke-miterlimit="4" path="" fill-rule="evenodd" stroke-dasharray="none" style="display: none;"/></g><g class="shapebase"><polyline fill="rgb(255, 255, 255)" fill-opacity="0" stroke="rgb(51, 51, 51)" stroke-opacity="1" stroke-width="2" stroke-linecap="butt" stroke-linejoin="miter" stroke-miterlimit="4" points="1036.98652905 493.68992889 1055.00000000 485.00000000 1038.46756534 473.74484099" fill-rule="evenodd" stroke-dasharray="none" dojoGfxStrokeStyle="solid" style="display: inline;"/><path fill="none" fill-opacity="0" stroke="rgb(51, 51, 51)" stroke-opacity="1" stroke-width="2" stroke-linecap="butt" stroke-linejoin="miter" stroke-miterlimit="4" path="" stroke-dasharray="none" d="M910,379 C982.5,379 982.5,485  1055,485"/><path fill="none" fill-opacity="0" stroke="rgb(51, 51, 51)" stroke-opacity="0" stroke-width="10" stroke-linecap="butt" stroke-linejoin="miter" stroke-miterlimit="4" path="" stroke-dasharray="none" style="display: none;" d="M910,379 C982.5,379 982.5,485  1055,485"/><polyline fill="rgb(255, 255, 255)" fill-opacity="0" stroke="rgb(51, 51, 51)" stroke-opacity="1" stroke-width="2" stroke-linecap="butt" stroke-linejoin="miter" stroke-miterlimit="4" points="926.09792126 390.86831628 910.00000000 379.00000000 928.32722402 370.99294938" stroke-dasharray="none" dojoGfxStrokeStyle="solid" fill-rule="evenodd" style="display: inline;"/><path fill="rgb(250, 250, 250)" fill-opacity="1" stroke="rgb(51, 51, 51)" stroke-opacity="1" stroke-width="2" stroke-linecap="butt" stroke-linejoin="miter" stroke-miterlimit="4" path="" stroke-dasharray="none" fill-rule="evenodd" style="display: none;"/><path fill="rgb(250, 250, 250)" fill-opacity="1" stroke="rgb(51, 51, 51)" stroke-opacity="1" stroke-width="2" stroke-linecap="butt" stroke-linejoin="miter" stroke-miterlimit="4" path="" fill-rule="evenodd" stroke-dasharray="none" style="display: none;"/></g><g class="shapebase"><polyline fill="rgb(255, 255, 255)" fill-opacity="0" stroke="rgb(51, 51, 51)" stroke-opacity="1" stroke-width="2" stroke-linecap="butt" stroke-linejoin="miter" stroke-miterlimit="4" points="779.74522967 608.02298216 793.00000000 623.00000000 799.34309276 604.03252325" fill-rule="evenodd" stroke-dasharray="none" dojoGfxStrokeStyle="solid" style="display: inline;"/><path fill="none" fill-opacity="0" stroke="rgb(51, 51, 51)" stroke-opacity="1" stroke-width="2" stroke-linecap="butt" stroke-linejoin="miter" stroke-miterlimit="4" path="" stroke-dasharray="none" d="M797,402 C797,402 789.9158243673602,443.2047907415064 788,464 784.9090102927662,497.55097621309994 782.0744571662086,531.3620079817856 784,565 785.1181140387555,584.5327314724315 793,623 793,623"/><path fill="none" fill-opacity="0" stroke="rgb(51, 51, 51)" stroke-opacity="0" stroke-width="10" stroke-linecap="butt" stroke-linejoin="miter" stroke-miterlimit="4" path="" stroke-dasharray="none" style="display: none;" d="M797,402 C797,402 789.9158243673602,443.2047907415064 788,464 784.9090102927662,497.55097621309994 782.0744571662086,531.3620079817856 784,565 785.1181140387555,584.5327314724315 793,623 793,623"/><polyline fill="rgb(255, 255, 255)" fill-opacity="0" stroke="rgb(51, 51, 51)" stroke-opacity="1" stroke-width="2" stroke-linecap="butt" stroke-linejoin="miter" stroke-miterlimit="4" points="784.30259506 417.45237548 797.00000000 402.00000000 804.03344724 420.72246298" stroke-dasharray="none" dojoGfxStrokeStyle="solid" fill-rule="evenodd" style="display: inline;"/><path fill="rgb(250, 250, 250)" fill-opacity="1" stroke="rgb(51, 51, 51)" stroke-opacity="1" stroke-width="2" stroke-linecap="butt" stroke-linejoin="miter" stroke-miterlimit="4" path="" stroke-dasharray="none" fill-rule="evenodd" style="display: none;"/><path fill="rgb(250, 250, 250)" fill-opacity="1" stroke="rgb(51, 51, 51)" stroke-opacity="1" stroke-width="2" stroke-linecap="butt" stroke-linejoin="miter" stroke-miterlimit="4" path="" fill-rule="evenodd" stroke-dasharray="none" style="display: none;"/></g><g class="shapebase"><g transform="matrix(1.00000000,0.00000000,0.00000000,1.00000000,776.00000000,448.00000000)"/><rect fill="rgb(250, 250, 250)" fill-opacity="1" stroke="none" stroke-opacity="0" stroke-width="1" stroke-linecap="butt" stroke-linejoin="miter" stroke-miterlimit="4" x="776" y="448" width="26" height="30" ry="4" rx="4" fill-rule="evenodd"/><g transform="matrix(1.00000000,0.00000000,0.00000000,1.00000000,776.00000000,448.00000000)"><g class="shapebase"><text fill="rgb(51, 51, 51)" fill-opacity="1" stroke="none" stroke-opacity="0" stroke-width="1" stroke-linecap="butt" stroke-linejoin="miter" stroke-miterlimit="4" x="0" y="0" text-anchor="start" text-decoration="none" rotate="0" kerning="auto" text-rendering="auto" fill-rule="evenodd" font-style="normal" font-variant="normal" font-weight="Normal" font-size="12px" font-family="arial,helvetica,sans-serif" dominant-baseline="text-before-edge"><tspan x="0" alignment-baseline="before-edge">Load</tspan><tspan x="0" dy="17" alignment-baseline="before-edge">data</tspan></text></g></g></g><g class="shapebase"><g transform="matrix(1.00000000,0.00000000,0.00000000,1.00000000,647.00000000,359.00000000)"/><rect fill="rgb(250, 250, 250)" fill-opacity="1" stroke="none" stroke-opacity="0" stroke-width="1" stroke-linecap="butt" stroke-linejoin="miter" stroke-miterlimit="4" x="647" y="359" width="91" height="13" ry="4" rx="4" fill-rule="evenodd"/><g transform="matrix(1.00000000,0.00000000,0.00000000,1.00000000,647.00000000,359.00000000)"><g class="shapebase"><text fill="rgb(51, 51, 51)" fill-opacity="1" stroke="none" stroke-opacity="0" stroke-width="1" stroke-linecap="butt" stroke-linejoin="miter" stroke-miterlimit="4" x="0" y="0" text-anchor="start" text-decoration="none" rotate="0" kerning="auto" text-rendering="auto" fill-rule="evenodd" font-style="normal" font-variant="normal" font-weight="Normal" font-size="12px" font-family="arial,helvetica,sans-serif" dominant-baseline="text-before-edge"><tspan x="0" alignment-baseline="before-edge">Access Web App</tspan></text></g></g></g><g class="shapebase"><g transform="matrix(1.00000000,0.00000000,0.00000000,1.00000000,661.00000000,433.00000000)"/><rect fill="rgb(250, 250, 250)" fill-opacity="1" stroke="none" stroke-opacity="0" stroke-width="1" stroke-linecap="butt" stroke-linejoin="miter" stroke-miterlimit="4" x="661" y="433" width="89" height="13" ry="4" rx="4" fill-rule="evenodd"/><g transform="matrix(1.00000000,0.00000000,0.00000000,1.00000000,661.00000000,433.00000000)"><g class="shapebase"><text fill="rgb(51, 51, 51)" fill-opacity="1" stroke="none" stroke-opacity="0" stroke-width="1" stroke-linecap="butt" stroke-linejoin="miter" stroke-miterlimit="4" x="0" y="0" text-anchor="start" text-decoration="none" rotate="0" kerning="auto" text-rendering="auto" fill-rule="evenodd" font-style="normal" font-variant="normal" font-weight="Normal" font-size="12px" font-family="arial,helvetica,sans-serif" dominant-baseline="text-before-edge"><tspan x="0" alignment-baseline="before-edge">Send commands</tspan></text></g></g></g><g class="shapebase"><g transform="matrix(1.00000000,0.00000000,0.00000000,1.00000000,942.00000000,338.00000000)"/><rect fill="rgb(250, 250, 250)" fill-opacity="1" stroke="none" stroke-opacity="0" stroke-width="1" stroke-linecap="butt" stroke-linejoin="miter" stroke-miterlimit="4" x="942" y="338" width="53" height="13" ry="4" rx="4" fill-rule="evenodd"/><g transform="matrix(1.00000000,0.00000000,0.00000000,1.00000000,942.00000000,338.00000000)"><g class="shapebase"><text fill="rgb(51, 51, 51)" fill-opacity="1" stroke="none" stroke-opacity="0" stroke-width="1" stroke-linecap="butt" stroke-linejoin="miter" stroke-miterlimit="4" x="0" y="0" text-anchor="start" text-decoration="none" rotate="0" kerning="auto" text-rendering="auto" fill-rule="evenodd" font-style="normal" font-variant="normal" font-weight="Normal" font-size="12px" font-family="arial,helvetica,sans-serif" dominant-baseline="text-before-edge"><tspan x="0" alignment-baseline="before-edge">Load data</tspan></text></g></g></g><g class="shapebase"><g transform="matrix(1.00000000,0.00000000,0.00000000,1.00000000,954.00000000,425.00000000)"/><rect fill="rgb(250, 250, 250)" fill-opacity="1" stroke="none" stroke-opacity="0" stroke-width="1" stroke-linecap="butt" stroke-linejoin="miter" stroke-miterlimit="4" x="954" y="425" width="53" height="13" ry="4" rx="4" fill-rule="evenodd"/><g transform="matrix(1.00000000,0.00000000,0.00000000,1.00000000,954.00000000,425.00000000)"><g class="shapebase"><text fill="rgb(51, 51, 51)" fill-opacity="1" stroke="none" stroke-opacity="0" stroke-width="1" stroke-linecap="butt" stroke-linejoin="miter" stroke-miterlimit="4" x="0" y="0" text-anchor="start" text-decoration="none" rotate="0" kerning="auto" text-rendering="auto" fill-rule="evenodd" font-style="normal" font-variant="normal" font-weight="Normal" font-size="12px" font-family="arial,helvetica,sans-serif" dominant-baseline="text-before-edge"><tspan x="0" alignment-baseline="before-edge">Load data</tspan></text></g></g></g></g><g/><g/></g></svg>