<?xml version="1.0" encoding="UTF-8"?>
<svg style="background-color:transparent;" preserveAspectRatio="xMinYMin meet" height="404" width="670" viewBox="428 225 690 424" xmlns:xlink="http://www.w3.org/1999/xlink" xmlns="http://www.w3.org/2000/svg" ><defs><g id="linkshape" class="svglink"><rect width="26" height="25.705463" x="0" y="0" rx="26" style="fill:#fff;stroke:none;"/><path d="m12.96972,3.89162c-1.46202,0.0926 -1.96087,1.3485 -1.97318,2.16807c0.061,1.06359 0.95974,1.43208 1.91556,1.67657c0.86622,0.20718 2.53795,-0.39401 2.58252,-1.25608c0.1196,-2.10236 -0.96772,-2.51327 -2.5249,-2.58856 z" style="fill:none;stroke:#00642A;stroke-width:1.33538628"/><path d="m13.33742,8.10908c-0.00095,4.26823 0.42843,9.17994 0.13576,13.07847" style="fill:none;stroke:#00642A;stroke-width:1.33538628"/><path d="m5.79976,15.83298c1.21269,7.46208 13.76733,8.39403 14.45306,0.22481" style="fill:none;stroke:#00642A;stroke-width:1.33538628"/><path d="m20.53438,12.70151c0.36453,0.65146 1.3076,1.62194 1.50505,2.23541c0.14125,0.40272 0.14865,0.52327 -0.60832,0.50239c-0.84553,0.0577 -2.5409,0.2236 -3.30599,0.13608c-0.42486,-0.124 -0.38393,-0.3733 -0.15689,-0.81348c0.4456,-0.73802 0.83742,-1.23374 1.36025,-2.03069c0.44058,-0.5668 0.8427,-0.6095 1.2059,-0.0297 z" style="fill:none;stroke:#00642A;stroke-width:1.33538628"/><path d="m6.65205,12.98495c0.46781,0.5895 0.69238,0.72549 1.30269,1.52036c0.2394,0.21964 0.28495,0.66561 -0.15744,0.62957c-1.02897,0.0804 -2.31388,0.096 -3.23877,0.112c-0.84264,0.0267 -0.72894,-0.1367 -0.46065,-0.75013c0.29098,-0.54544 0.6673,-0.89767 1.08185,-1.59111c0.54713,-0.81778 0.90943,-0.7521 1.47232,0.0793 z" style="fill:none;stroke:#00642A;stroke-width:1.33538628"/></g><style type="text/css">.svg-txt-center tspan {text-anchor: middle;} .svg-txt-right tspan {text-anchor: end;} svg a {fill: #0088cc;} .dark-shape a {fill:#B8ECFF;}</style></defs><g><g/><g><g class="shapebase"><g transform="matrix(1.00000000,0.00000000,0.00000000,1.00000000,833.00000000,303.00000000)"><path fill="rgb(204, 204, 255)" fill-opacity="0" stroke="rgb(51, 51, 51)" stroke-opacity="1" stroke-width="3.0" stroke-linecap="butt" stroke-linejoin="miter" stroke-miterlimit="4" path="" stroke-dasharray="none" d="m121.24290915644687,0.13132992025909174c-11.085087876536296,0 -20.892611954588073,7.469824677103017 -26.917716755498944,18.94247473008609c-11.274566292884188,-7.829115690527627 -26.336184447190654,-12.372246182555719 -40.94838473380568,-11.343034333788415c-21.7419762652378,1.5321031442638438 -35.11624708555336,14.877716928652273 -32.52440196872458,31.00049679816927c-14.204246907861778,6.92678236893274 -22.161768470487882,15.557287057083476 -20.334700106874916,24.097022034031983c1.4951236825133079,6.988051232784139 9.302172044592686,12.782327314615266 21.143629391760093,16.816865410187358c-3.451584128572838,7.377506655261942 -3.509771674842788,15.079052608510526 0.5857759842796191,21.783237674705173c9.040116474503328,14.798227766390191 35.09028173661828,19.275914485522858 58.96765058597356,10.421153590378122c0.4712081715334383,0.832623399921362 0.956977527733998,1.6547874085092475 1.47838918670184,2.4641225575181394c12.530740134316455,19.45073534569091 34.85710832778931,24.378648679876004 49.84654967514407,11.004341381541286c4.8780769328436255,-4.352467096216156 8.359755701525808,-10.119067125377946 10.43235103205139,-16.572508813292654c8.896849516172066,14.864058616945329 27.465677125866936,17.63429048228421 43.7099196970891,5.643426388160894c4.436694597146416,-3.275147024027627 8.282774733097115,-7.336669962162431 11.436535165536535,-11.88862029515108c3.7491904935918208,3.975812884913081 7.824377658835614,7.445355839328429 12.105972190393786,10.21459236211377c21.3862395463474,13.831971334134458 40.070824570677985,4.972123132604948 41.757314018690856,-19.78926240751245c0.3037373901419813,-4.459466420721983 0.04518199484299263,-9.120738544174728 -0.7252453673481277,-13.863684053826496c15.116637241697553,-4.717315438898045 24.196788395175684,-11.058006934219788 23.486744767358278,-17.776043850951233c-0.543768167555343,-5.145423330538419 -6.74904618157239,-9.73821035662658 -16.82005563967691,-13.318291631293686c4.862108815172532,-6.115578187795529 8.2714506381871,-12.159795844182907 9.762914007194139,-17.682398705705438c5.309467756516694,-19.659840227147647 -15.948615063192507,-25.295663304135648 -47.503491491944416,-12.584364740077351c-1.3913480753707634,0.5604276247721552 -2.773288001182448,1.156798175088904 -4.156194478529382,1.76818733860244c-11.471594105838758,-18.24601142664893 -41.29840221284253,-22.57823989094305 -67.14101626067239,-9.593581553915989c-1.686741094566425,0.8474761226925587 -3.313807640500978,1.741694637635648 -4.881462722836924,2.6899132509488495c-5.940974782665246,-7.698145199523982 -13.949969503973241,-12.434012717683888 -22.76148796153044,-12.434012717683888z" fill-rule="evenodd"/></g><rect fill="rgb(0, 0, 0)" fill-opacity="0" stroke="none" stroke-opacity="0" stroke-width="1" stroke-linecap="butt" stroke-linejoin="miter" stroke-miterlimit="4" x="833" y="303" width="275" height="133" ry="0" rx="0" fill-rule="evenodd"/><g transform="matrix(1.00000000,0.00000000,0.00000000,1.00000000,833.00000000,303.00000000)"><g class="shapebase"/></g></g><g class="shapebase"><g transform="matrix(1.00000000,0.00000000,0.00000000,1.00000000,438.00000000,347.00000000)"><path fill="rgb(204, 204, 255)" fill-opacity="0" stroke="rgb(51, 51, 51)" stroke-opacity="1" stroke-width="3.0" stroke-linecap="butt" stroke-linejoin="miter" stroke-miterlimit="4" path="" stroke-dasharray="none" d="m16.6864752,-0.16438571428571427l91.771284,-0.8378306428571428c1.04734746,-0.009516928571428572 1.94651682,0.9078372857142857 1.89059856,2.031181071428571l-3.1188618,62.661614285714286c-0.05591088,1.1230213571428571 -0.8432142,2.035697714285714 -1.89059856,2.030858642857143l-90.21189,-0.4187527857142857c-1.04738436,-0.0051615 -1.9191616200000001,-0.9065475714285713 -1.89060102,-2.031181071428571l1.55942844,-61.40493571428571c0.02856798,-1.1249559285714286 0.84324618,-2.0218253571428573 1.89060102,-2.031181071428571z" fill-rule="evenodd"/><path fill="rgb(204, 204, 255)" fill-opacity="0" stroke="rgb(51, 51, 51)" stroke-opacity="1" stroke-width="3.0" stroke-linecap="butt" stroke-linejoin="miter" stroke-miterlimit="4" path="" stroke-dasharray="none" d="m0.041669939999999996,69.44847142857142c-0.05535492,0.8242807142857143 -0.041669939999999996,0.73556 -0.041669939999999996,1.6934027857142855c0,1.2552937142857143 0.88221258,2.2228120000000002 2.04028464,2.2305555714285714l119.195118,0.7923417857142857c1.1580696,0.008066 2.169597,-0.4952132857142857 2.04028464,-1.7437307142857141c-0.09746274,-0.9410659285714285 0.11933706,-1.2488398571428572 -0.148092,-2.2879822142857145l-48.23568,-0.4261739285714286c-0.08147274,1.1368937142857143 -0.96845034,2.0437610714285714 -2.04028464,2.0324707857142856l-20.2412982,-0.21034499999999998c-1.07182938,-0.010967857142857142 -1.9588242,-0.9355819999999999 -2.04028464,-2.074410285714286z" fill-rule="evenodd"/></g><rect fill="rgb(0, 0, 0)" fill-opacity="0" stroke="none" stroke-opacity="0" stroke-width="1" stroke-linecap="butt" stroke-linejoin="miter" stroke-miterlimit="4" x="438" y="347" width="123" height="74" ry="0" rx="0" fill-rule="evenodd"/><g transform="matrix(1.00000000,0.00000000,0.00000000,1.00000000,438.00000000,347.00000000)"><g class="shapebase"><text fill="rgb(51, 51, 51)" fill-opacity="1" stroke="none" stroke-opacity="0" stroke-width="1" stroke-linecap="butt" stroke-linejoin="miter" stroke-miterlimit="4" x="61" y="89" text-anchor="middle" text-decoration="none" rotate="0" kerning="auto" text-rendering="auto" fill-rule="evenodd" font-style="normal" font-variant="normal" font-weight="bold" font-size="12px" font-family="arial,helvetica,sans-serif">Client</text></g></g></g><g class="shapebase"><g transform="matrix(1.00000000,0.00000000,0.00000000,1.00000000,629.00000000,273.00000000)"><path fill="rgb(204, 204, 255)" fill-opacity="0" stroke="rgb(51, 51, 51)" stroke-opacity="1" stroke-width="3.0" stroke-linecap="butt" stroke-linejoin="miter" stroke-miterlimit="4" path="" stroke-dasharray="none" d="m24.950336947661658,13.48714330776677c-0.6562601232054366,9.240001417675133 -15.766193978899691,16.35786505366025 -22.024228950372063,7.378639023020686c-6.256876984212547,-8.975464605411005 -1.9691476930928604,-19.247926961892013 8.030554407567656,-20.66939369325251c9.997029822368612,-1.4227440067723351 14.575817971528831,5.097515653060458 13.993674542804408,13.290754670231825z" fill-rule="evenodd"/><path fill="rgb(51, 51, 51)" fill-opacity="1" stroke="rgb(51, 51, 51)" stroke-opacity="1" stroke-width="3.0" stroke-linecap="butt" stroke-linejoin="miter" stroke-miterlimit="4" path="" stroke-dasharray="none" style="stroke:none;" d="m5.610627344051808,9.819089928999174c1.1800450345928721,-5.88270814087877 10.969316698624421,-5.155153963180434 13.480294068890268,-0.14301461697889645c2.5109406379181927,5.010489951181528 -0.008264778222390195,8.382497038430781 -5.5514790812402355,9.30644991095077c-5.816420321789324,0.9706488547023385 -9.250904010625051,-2.575057631270019 -7.928814987650034,-9.163435293971874z" fill-rule="evenodd"/></g><rect fill="rgb(0, 0, 0)" fill-opacity="0" stroke="none" stroke-opacity="0" stroke-width="1" stroke-linecap="butt" stroke-linejoin="miter" stroke-miterlimit="4" x="629" y="273" width="25" height="25" ry="0" rx="0" fill-rule="evenodd"/><g transform="matrix(1.00000000,0.00000000,0.00000000,1.00000000,629.00000000,273.00000000)"><g class="shapebase"/></g></g><g class="shapebase"><g transform="matrix(1.00000000,0.00000000,0.00000000,1.00000000,890.00000000,578.00000000)"><path fill="rgb(204, 204, 255)" fill-opacity="0" stroke="rgb(51, 51, 51)" stroke-opacity="1" stroke-width="3.0" stroke-linecap="butt" stroke-linejoin="miter" stroke-miterlimit="4" path="" stroke-dasharray="none" d="m24.950336947661658,13.48714330776677c-0.6562601232054366,9.240001417675133 -15.766193978899691,16.35786505366025 -22.024228950372063,7.378639023020686c-6.256876984212547,-8.975464605411005 -1.9691476930928604,-19.247926961892013 8.030554407567656,-20.66939369325251c9.997029822368612,-1.4227440067723351 14.575817971528831,5.097515653060458 13.993674542804408,13.290754670231825z" fill-rule="evenodd"/><path fill="rgb(51, 51, 51)" fill-opacity="1" stroke="rgb(51, 51, 51)" stroke-opacity="1" stroke-width="3.0" stroke-linecap="butt" stroke-linejoin="miter" stroke-miterlimit="4" path="" stroke-dasharray="none" style="stroke:none;" d="m5.610627344051808,9.819089928999174c1.1800450345928721,-5.88270814087877 10.969316698624421,-5.155153963180434 13.480294068890268,-0.14301461697889645c2.5109406379181927,5.010489951181528 -0.008264778222390195,8.382497038430781 -5.5514790812402355,9.30644991095077c-5.816420321789324,0.9706488547023385 -9.250904010625051,-2.575057631270019 -7.928814987650034,-9.163435293971874z" fill-rule="evenodd"/></g><rect fill="rgb(0, 0, 0)" fill-opacity="0" stroke="none" stroke-opacity="0" stroke-width="1" stroke-linecap="butt" stroke-linejoin="miter" stroke-miterlimit="4" x="890" y="578" width="25" height="25" ry="0" rx="0" fill-rule="evenodd"/><g transform="matrix(1.00000000,0.00000000,0.00000000,1.00000000,890.00000000,578.00000000)"><g class="shapebase"><text fill="rgb(51, 51, 51)" fill-opacity="1" stroke="none" stroke-opacity="0" stroke-width="1" stroke-linecap="butt" stroke-linejoin="miter" stroke-miterlimit="4" x="12" y="40" text-anchor="middle" text-decoration="none" rotate="0" kerning="auto" text-rendering="auto" fill-rule="evenodd" font-style="normal" font-variant="normal" font-weight="bold" font-size="12px" font-family="arial,helvetica,sans-serif">Validation</text></g></g></g><g class="shapebase"><g transform="matrix(1.00000000,0.00000000,0.00000000,1.00000000,474.00000000,361.00000000)"><path fill="rgb(204, 204, 255)" fill-opacity="0" stroke="rgb(51, 51, 51)" stroke-opacity="1" stroke-width="3.0" stroke-linecap="butt" stroke-linejoin="miter" stroke-miterlimit="4" path="" stroke-dasharray="none" d="m7.525723711340206,6.851128260377444c11.6363206185567,-10.891258032145657 48.33498969072164,-6.409233432391174 50.12719072164948,10.247393442202291c1.7887340206185565,16.6559457625218 -17.9021206185567,25.626173939517518 -38.49087010309278,18.57817758015115c-20.585160824742267,-7.043130637181199 -21.951588659793813,-19.169218144980825 -11.6363206185567,-28.825571022353436z" fill-rule="evenodd"/><path fill="rgb(204, 204, 255)" fill-opacity="0" stroke="rgb(51, 51, 51)" stroke-opacity="1" stroke-width="3.0" stroke-linecap="butt" stroke-linejoin="miter" stroke-miterlimit="4" path="" stroke-dasharray="none" d="m19.853621649484538,8.705173191721073c0,2.298882341548014 0,4.597760231383142 0,6.896642572931156" fill-rule="evenodd"/><path fill="rgb(204, 204, 255)" fill-opacity="0" stroke="rgb(51, 51, 51)" stroke-opacity="1" stroke-width="3.0" stroke-linecap="butt" stroke-linejoin="miter" stroke-miterlimit="4" path="" stroke-dasharray="none" d="m31.433983505154636,9.624727909025435c0,1.9923507473079005 0,3.9847415600317815 0,5.977087855626795" fill-rule="evenodd"/><path fill="rgb(204, 204, 255)" fill-opacity="0" stroke="rgb(51, 51, 51)" stroke-opacity="1" stroke-width="3.0" stroke-linecap="butt" stroke-linejoin="miter" stroke-miterlimit="4" path="" stroke-dasharray="none" d="m17.53540824742268,25.63475239025021c1.501884536082474,4.91038622056516 17.72262680412371,4.147024301603867 20.587289690721647,0.9195502655914737" fill-rule="evenodd"/></g><rect fill="rgb(0, 0, 0)" fill-opacity="0" stroke="none" stroke-opacity="0" stroke-width="1" stroke-linecap="butt" stroke-linejoin="miter" stroke-miterlimit="4" x="474" y="361" width="59" height="39" ry="0" rx="0" fill-rule="evenodd"/><g transform="matrix(1.00000000,0.00000000,0.00000000,1.00000000,474.00000000,361.00000000)"><g class="shapebase"/></g></g><g class="shapebase"><polyline fill="rgb(255, 255, 255)" fill-opacity="0" stroke="rgb(51, 51, 51)" stroke-opacity="1" stroke-width="2" stroke-linecap="butt" stroke-linejoin="miter" stroke-miterlimit="4" points="844.75471189 372.12916769 862.00000000 362.00000000 844.60523941 352.12972625" fill-rule="evenodd" stroke-dasharray="none" dojoGfxStrokeStyle="solid" style="display: inline;"/><path fill="none" fill-opacity="0" stroke="rgb(51, 51, 51)" stroke-opacity="1" stroke-width="2" stroke-linecap="butt" stroke-linejoin="miter" stroke-miterlimit="4" path="" stroke-dasharray="none" d="M563,384 C712.5,384 712.5,362  862,362"/><path fill="none" fill-opacity="0" stroke="rgb(51, 51, 51)" stroke-opacity="0" stroke-width="10" stroke-linecap="butt" stroke-linejoin="miter" stroke-miterlimit="4" path="" stroke-dasharray="none" style="display: none;" d="M563,384 C712.5,384 712.5,362  862,362"/><path fill="rgb(250, 250, 250)" fill-opacity="1" stroke="rgb(51, 51, 51)" stroke-opacity="1" stroke-width="2" stroke-linecap="butt" stroke-linejoin="miter" stroke-miterlimit="4" path="" stroke-dasharray="none" fill-rule="evenodd" style="display: none;"/><path fill="rgb(250, 250, 250)" fill-opacity="1" stroke="rgb(51, 51, 51)" stroke-opacity="1" stroke-width="2" stroke-linecap="butt" stroke-linejoin="miter" stroke-miterlimit="4" path="" fill-rule="evenodd" stroke-dasharray="none" style="display: none;"/></g><g class="shapebase"><polyline fill="rgb(255, 255, 255)" fill-opacity="0" stroke="rgb(51, 51, 51)" stroke-opacity="1" stroke-width="2" stroke-linecap="butt" stroke-linejoin="miter" stroke-miterlimit="4" points="666.34678532 514.07342277 677.00000000 531.00000000 686.33223854 513.31075683" fill-rule="evenodd" stroke-dasharray="none" dojoGfxStrokeStyle="solid" style="display: inline;"/><path fill="none" fill-opacity="0" stroke="rgb(51, 51, 51)" stroke-opacity="1" stroke-width="2" stroke-linecap="butt" stroke-linejoin="miter" stroke-miterlimit="4" path="" stroke-dasharray="none" d="M563,384 C620,384 677,457.5  677,531"/><path fill="none" fill-opacity="0" stroke="rgb(51, 51, 51)" stroke-opacity="0" stroke-width="10" stroke-linecap="butt" stroke-linejoin="miter" stroke-miterlimit="4" path="" stroke-dasharray="none" style="display: none;" d="M563,384 C620,384 677,457.5  677,531"/><path fill="rgb(250, 250, 250)" fill-opacity="1" stroke="rgb(51, 51, 51)" stroke-opacity="1" stroke-width="2" stroke-linecap="butt" stroke-linejoin="miter" stroke-miterlimit="4" path="" stroke-dasharray="none" fill-rule="evenodd" style="display: none;"/><path fill="rgb(250, 250, 250)" fill-opacity="1" stroke="rgb(51, 51, 51)" stroke-opacity="1" stroke-width="2" stroke-linecap="butt" stroke-linejoin="miter" stroke-miterlimit="4" path="" fill-rule="evenodd" stroke-dasharray="none" style="display: none;"/></g><g class="shapebase"><polyline fill="rgb(255, 255, 255)" fill-opacity="0" stroke="rgb(51, 51, 51)" stroke-opacity="1" stroke-width="2" stroke-linecap="butt" stroke-linejoin="miter" stroke-miterlimit="4" points="650.83963949 319.41210771 641.00000000 302.00000000 630.84049214 319.22743161" fill-rule="evenodd" stroke-dasharray="none" dojoGfxStrokeStyle="solid" style="display: inline;"/><path fill="none" fill-opacity="0" stroke="rgb(51, 51, 51)" stroke-opacity="1" stroke-width="2" stroke-linecap="butt" stroke-linejoin="miter" stroke-miterlimit="4" path="" stroke-dasharray="none" d="M625,478 C625,390 641,390  641,302"/><path fill="none" fill-opacity="0" stroke="rgb(51, 51, 51)" stroke-opacity="0" stroke-width="10" stroke-linecap="butt" stroke-linejoin="miter" stroke-miterlimit="4" path="" stroke-dasharray="none" style="display: none;" d="M625,478 C625,390 641,390  641,302"/><path fill="rgb(250, 250, 250)" fill-opacity="1" stroke="rgb(51, 51, 51)" stroke-opacity="1" stroke-width="2" stroke-linecap="butt" stroke-linejoin="miter" stroke-miterlimit="4" path="" stroke-dasharray="none" fill-rule="evenodd" style="display: none;"/><path fill="rgb(250, 250, 250)" fill-opacity="1" stroke="rgb(51, 51, 51)" stroke-opacity="1" stroke-width="2" stroke-linecap="butt" stroke-linejoin="miter" stroke-miterlimit="4" path="" fill-rule="evenodd" stroke-dasharray="none" style="display: none;"/></g><g class="shapebase"><polyline fill="rgb(255, 255, 255)" fill-opacity="0" stroke="rgb(51, 51, 51)" stroke-opacity="1" stroke-width="2" stroke-linecap="butt" stroke-linejoin="miter" stroke-miterlimit="4" points="868.64803286 552.94531228 886.00000000 543.00000000 868.71112334 532.94541179" fill-rule="evenodd" stroke-dasharray="none" dojoGfxStrokeStyle="solid" style="display: inline;"/><path fill="none" fill-opacity="0" stroke="rgb(51, 51, 51)" stroke-opacity="1" stroke-width="2" stroke-linecap="butt" stroke-linejoin="miter" stroke-miterlimit="4" path="" stroke-dasharray="none" d="M725,538 C805.5,538 805.5,543  886,543"/><path fill="none" fill-opacity="0" stroke="rgb(51, 51, 51)" stroke-opacity="0" stroke-width="10" stroke-linecap="butt" stroke-linejoin="miter" stroke-miterlimit="4" path="" stroke-dasharray="none" style="display: none;" d="M725,538 C805.5,538 805.5,543  886,543"/><path fill="rgb(250, 250, 250)" fill-opacity="1" stroke="rgb(51, 51, 51)" stroke-opacity="1" stroke-width="2" stroke-linecap="butt" stroke-linejoin="miter" stroke-miterlimit="4" path="" stroke-dasharray="none" fill-rule="evenodd" style="display: none;"/><path fill="rgb(250, 250, 250)" fill-opacity="1" stroke="rgb(51, 51, 51)" stroke-opacity="1" stroke-width="2" stroke-linecap="butt" stroke-linejoin="miter" stroke-miterlimit="4" path="" fill-rule="evenodd" stroke-dasharray="none" style="display: none;"/></g><g class="shapebase"><polyline fill="rgb(255, 255, 255)" fill-opacity="0" stroke="rgb(51, 51, 51)" stroke-opacity="1" stroke-width="2" stroke-linecap="butt" stroke-linejoin="miter" stroke-miterlimit="4" points="868.36090982 599.42669071 886.00000000 590.00000000 869.01670128 579.43744516" fill-rule="evenodd" stroke-dasharray="none" dojoGfxStrokeStyle="solid" style="display: inline;"/><path fill="none" fill-opacity="0" stroke="rgb(51, 51, 51)" stroke-opacity="1" stroke-width="2" stroke-linecap="butt" stroke-linejoin="miter" stroke-miterlimit="4" path="" stroke-dasharray="none" d="M725,538 C805.5,538 805.5,590  886,590"/><path fill="none" fill-opacity="0" stroke="rgb(51, 51, 51)" stroke-opacity="0" stroke-width="10" stroke-linecap="butt" stroke-linejoin="miter" stroke-miterlimit="4" path="" stroke-dasharray="none" style="display: none;" d="M725,538 C805.5,538 805.5,590  886,590"/><path fill="rgb(250, 250, 250)" fill-opacity="1" stroke="rgb(51, 51, 51)" stroke-opacity="1" stroke-width="2" stroke-linecap="butt" stroke-linejoin="miter" stroke-miterlimit="4" path="" stroke-dasharray="none" fill-rule="evenodd" style="display: none;"/><path fill="rgb(250, 250, 250)" fill-opacity="1" stroke="rgb(51, 51, 51)" stroke-opacity="1" stroke-width="2" stroke-linecap="butt" stroke-linejoin="miter" stroke-miterlimit="4" path="" fill-rule="evenodd" stroke-dasharray="none" style="display: none;"/></g><g class="shapebase"><g transform="matrix(1.00000000,0.00000000,0.00000000,1.00000000,792.00000000,449.00000000)"><path fill="rgb(204, 204, 255)" fill-opacity="0" stroke="rgb(51, 51, 51)" stroke-opacity="1" stroke-width="3.0" stroke-linecap="butt" stroke-linejoin="miter" stroke-miterlimit="4" path="" stroke-dasharray="none" d="m0.12114813654071255,29.608884243039963l2.890287534786347,130.79249969442097l63.61717721278049,29.534078136102174l-2.8922145694728427,-126.57427601347959" fill-rule="evenodd"/><path fill="rgb(204, 204, 255)" fill-opacity="0" stroke="rgb(51, 51, 51)" stroke-opacity="1" stroke-width="3.0" stroke-linecap="butt" stroke-linejoin="miter" stroke-miterlimit="4" path="" stroke-dasharray="none" d="m147.59569575677526,0.07925105755730469c0,0 -138.801757981189,18.98541780540946 -141.69183769850918,25.315475428363758c-2.8922240157213053,6.328817171618619 57.83276696633173,37.97297194367481 57.83276696633173,37.97297194367481l156.14695940934155,-35.8628263937577l-72.28836098958728,-27.4257243492255z" fill-rule="evenodd"/><path fill="rgb(204, 204, 255)" fill-opacity="0" stroke="rgb(51, 51, 51)" stroke-opacity="1" stroke-width="3.0" stroke-linecap="butt" stroke-linejoin="miter" stroke-miterlimit="4" path="" stroke-dasharray="none" d="m219.88358443393938,27.507008368694056l-2.8902780885378836,130.79215512460553l-150.36443841258543,31.644327056963917l-3.173561633701192,-126.57427601347959" fill-rule="evenodd"/><path fill="rgb(204, 204, 255)" fill-opacity="0" stroke="rgb(51, 51, 51)" stroke-opacity="1" stroke-width="3.0" stroke-linecap="butt" stroke-linejoin="miter" stroke-miterlimit="4" path="" stroke-dasharray="none" d="m23.25312137325782,78.12431426072908l20.241704594427684,10.54824684691416" fill-rule="evenodd"/></g><rect fill="rgb(0, 0, 0)" fill-opacity="0" stroke="none" stroke-opacity="0" stroke-width="1" stroke-linecap="butt" stroke-linejoin="miter" stroke-miterlimit="4" x="792" y="449" width="220" height="190" ry="0" rx="0" fill-rule="evenodd"/><g transform="matrix(1.00000000,0.00000000,0.00000000,1.00000000,792.00000000,449.00000000)"><g class="shapebase"/></g></g><g class="shapebase"><polyline fill="rgb(255, 255, 255)" fill-opacity="0" stroke="rgb(51, 51, 51)" stroke-opacity="1" stroke-width="2" stroke-linecap="butt" stroke-linejoin="miter" stroke-miterlimit="4" points="888.31919110 396.13225890 878.00000000 379.00000000 868.32262411 396.50281109" fill-rule="evenodd" stroke-dasharray="none" dojoGfxStrokeStyle="solid" style="display: inline;"/><path fill="none" fill-opacity="0" stroke="rgb(51, 51, 51)" stroke-opacity="1" stroke-width="2" stroke-linecap="butt" stroke-linejoin="miter" stroke-miterlimit="4" path="" stroke-dasharray="none" d="M905,527 C905,453 878,453  878,379"/><path fill="none" fill-opacity="0" stroke="rgb(51, 51, 51)" stroke-opacity="0" stroke-width="10" stroke-linecap="butt" stroke-linejoin="miter" stroke-miterlimit="4" path="" stroke-dasharray="none" style="display: none;" d="M905,527 C905,453 878,453  878,379"/><polyline fill="rgb(255, 255, 255)" fill-opacity="0" stroke="rgb(51, 51, 51)" stroke-opacity="1" stroke-width="2" stroke-linecap="butt" stroke-linejoin="miter" stroke-miterlimit="4" points="914.51145667 509.40647301 905.00000000 527.00000000 894.51928701 509.96607340" stroke-dasharray="none" dojoGfxStrokeStyle="solid" fill-rule="evenodd" style="display: inline;"/><path fill="rgb(250, 250, 250)" fill-opacity="1" stroke="rgb(51, 51, 51)" stroke-opacity="1" stroke-width="2" stroke-linecap="butt" stroke-linejoin="miter" stroke-miterlimit="4" path="" stroke-dasharray="none" fill-rule="evenodd" style="display: none;"/><path fill="rgb(250, 250, 250)" fill-opacity="1" stroke="rgb(51, 51, 51)" stroke-opacity="1" stroke-width="2" stroke-linecap="butt" stroke-linejoin="miter" stroke-miterlimit="4" path="" fill-rule="evenodd" stroke-dasharray="none" style="display: none;"/></g><g class="shapebase"><g transform="matrix(1.00000000,0.00000000,0.00000000,1.00000000,1007.00000000,335.00000000)"><path fill="rgb(204, 204, 255)" fill-opacity="0" stroke="rgb(51, 51, 51)" stroke-opacity="1" stroke-width="3.0" stroke-linecap="butt" stroke-linejoin="miter" stroke-miterlimit="4" path="" stroke-dasharray="none" d="m0.18165057739736618,10.85075343655969l0,34.1925309318896c0,0 13.663338331989852,10.773282460928733 33.70116149963699,9.836137878339406c20.037821866695488,-0.9370107812497227 30.512316959856136,-8.430688607134625 30.512316959856136,-8.430688607134625l0,-34.1925309318896" fill-rule="evenodd"/><path fill="rgb(204, 204, 255)" fill-opacity="0" stroke="rgb(51, 51, 51)" stroke-opacity="1" stroke-width="3.0" stroke-linecap="butt" stroke-linejoin="miter" stroke-miterlimit="4" path="" stroke-dasharray="none" d="m33.8809803371166,0.546310869604829c39.02444488143077,3.5417214593288815 43.71984346549501,18.736067783466716 0,19.672677160697624c-43.719385530515574,0.9375459866081403 -46.45104573995878,-23.887553159576324 0,-19.672677160697624z" fill-rule="evenodd"/></g><rect fill="rgb(0, 0, 0)" fill-opacity="0" stroke="none" stroke-opacity="0" stroke-width="1" stroke-linecap="butt" stroke-linejoin="miter" stroke-miterlimit="4" x="1007" y="335" width="65" height="55" ry="0" rx="0" fill-rule="evenodd"/><g transform="matrix(1.00000000,0.00000000,0.00000000,1.00000000,1007.00000000,335.00000000)"><g class="shapebase"><text fill="rgb(51, 51, 51)" fill-opacity="1" stroke="none" stroke-opacity="0" stroke-width="1" stroke-linecap="butt" stroke-linejoin="miter" stroke-miterlimit="4" x="32" y="40" text-anchor="middle" text-decoration="none" rotate="0" kerning="auto" text-rendering="auto" fill-rule="evenodd" font-style="normal" font-variant="normal" font-weight="bold" font-size="12px" font-family="arial,helvetica,sans-serif">Db</text></g></g></g><g class="shapebase"><g transform="matrix(1.00000000,0.00000000,0.00000000,1.00000000,917.00000000,338.00000000)"/><rect fill="rgb(0, 0, 0)" fill-opacity="0" stroke="none" stroke-opacity="0" stroke-width="1" stroke-linecap="butt" stroke-linejoin="miter" stroke-miterlimit="4" x="917" y="338" width="100" height="50" ry="4" rx="4" fill-rule="evenodd"/><g transform="matrix(1.00000000,0.00000000,0.00000000,1.00000000,917.00000000,338.00000000)"><g class="shapebase"><text fill="rgb(51, 51, 51)" fill-opacity="1" stroke="none" stroke-opacity="0" stroke-width="1" stroke-linecap="butt" stroke-linejoin="miter" stroke-miterlimit="4" x="0" y="21" text-anchor="start" text-decoration="none" rotate="0" kerning="auto" text-rendering="auto" fill-rule="evenodd" font-style="normal" font-variant="normal" font-weight="Normal" font-size="12px" font-family="arial,helvetica,sans-serif"><tspan x="0" font-weight="bold">Data Analysis</tspan><tspan x="0" dy="17" font-weight="bold">Reporting</tspan></text></g></g></g><g class="shapebase"><g transform="matrix(1.00000000,0.00000000,0.00000000,1.00000000,724.00000000,258.00000000)"><path fill="rgb(204, 204, 255)" fill-opacity="0" stroke="rgb(51, 51, 51)" stroke-opacity="1" stroke-width="3.0" stroke-linecap="butt" stroke-linejoin="miter" stroke-miterlimit="4" path="" stroke-dasharray="none" d="m0.18165057739736618,10.85075343655969l0,34.1925309318896c0,0 13.663338331989852,10.773282460928733 33.70116149963699,9.836137878339406c20.037821866695488,-0.9370107812497227 30.512316959856136,-8.430688607134625 30.512316959856136,-8.430688607134625l0,-34.1925309318896" fill-rule="evenodd"/><path fill="rgb(204, 204, 255)" fill-opacity="0" stroke="rgb(51, 51, 51)" stroke-opacity="1" stroke-width="3.0" stroke-linecap="butt" stroke-linejoin="miter" stroke-miterlimit="4" path="" stroke-dasharray="none" d="m33.8809803371166,0.546310869604829c39.02444488143077,3.5417214593288815 43.71984346549501,18.736067783466716 0,19.672677160697624c-43.719385530515574,0.9375459866081403 -46.45104573995878,-23.887553159576324 0,-19.672677160697624z" fill-rule="evenodd"/></g><rect fill="rgb(0, 0, 0)" fill-opacity="0" stroke="none" stroke-opacity="0" stroke-width="1" stroke-linecap="butt" stroke-linejoin="miter" stroke-miterlimit="4" x="724" y="258" width="65" height="55" ry="0" rx="0" fill-rule="evenodd"/><g transform="matrix(1.00000000,0.00000000,0.00000000,1.00000000,724.00000000,258.00000000)"><g class="shapebase"><text fill="rgb(51, 51, 51)" fill-opacity="1" stroke="none" stroke-opacity="0" stroke-width="1" stroke-linecap="butt" stroke-linejoin="miter" stroke-miterlimit="4" x="32" y="40" text-anchor="middle" text-decoration="none" rotate="0" kerning="auto" text-rendering="auto" fill-rule="evenodd" font-style="normal" font-variant="normal" font-weight="bold" font-size="12px" font-family="arial,helvetica,sans-serif">Db</text></g></g></g><g class="shapebase"><g transform="matrix(1.00000000,0.00000000,0.00000000,1.00000000,662.00000000,265.00000000)"/><rect fill="rgb(0, 0, 0)" fill-opacity="0" stroke="none" stroke-opacity="0" stroke-width="1" stroke-linecap="butt" stroke-linejoin="miter" stroke-miterlimit="4" x="662" y="265" width="100" height="50" ry="4" rx="4" fill-rule="evenodd"/><g transform="matrix(1.00000000,0.00000000,0.00000000,1.00000000,662.00000000,265.00000000)"><g class="shapebase"><text fill="rgb(51, 51, 51)" fill-opacity="1" stroke="none" stroke-opacity="0" stroke-width="1" stroke-linecap="butt" stroke-linejoin="miter" stroke-miterlimit="4" x="0" y="21" text-anchor="start" text-decoration="none" rotate="0" kerning="auto" text-rendering="auto" fill-rule="evenodd" font-style="normal" font-variant="normal" font-weight="Normal" font-size="12px" font-family="arial,helvetica,sans-serif"><tspan x="0" font-weight="bold">Active</tspan><tspan x="0" dy="17" font-weight="bold">Directory</tspan></text></g></g></g><g class="shapebase"><polyline fill="rgb(255, 255, 255)" fill-opacity="0" stroke="rgb(51, 51, 51)" stroke-opacity="1" stroke-width="2" stroke-linecap="butt" stroke-linejoin="miter" stroke-miterlimit="4" points="607.91850300 295.40300245 625.00000000 285.00000000 607.44998710 275.40849089" fill-rule="evenodd" stroke-dasharray="none" dojoGfxStrokeStyle="solid" style="display: inline;"/><path fill="none" fill-opacity="0" stroke="rgb(51, 51, 51)" stroke-opacity="1" stroke-width="2" stroke-linecap="butt" stroke-linejoin="miter" stroke-miterlimit="4" path="" stroke-dasharray="none" d="M499,345 C499,315 562,285  625,285"/><path fill="none" fill-opacity="0" stroke="rgb(51, 51, 51)" stroke-opacity="0" stroke-width="10" stroke-linecap="butt" stroke-linejoin="miter" stroke-miterlimit="4" path="" stroke-dasharray="none" style="display: none;" d="M499,345 C499,315 562,285  625,285"/><path fill="rgb(250, 250, 250)" fill-opacity="1" stroke="rgb(51, 51, 51)" stroke-opacity="1" stroke-width="2" stroke-linecap="butt" stroke-linejoin="miter" stroke-miterlimit="4" path="" stroke-dasharray="none" fill-rule="evenodd" style="display: none;"/><path fill="rgb(250, 250, 250)" fill-opacity="1" stroke="rgb(51, 51, 51)" stroke-opacity="1" stroke-width="2" stroke-linecap="butt" stroke-linejoin="miter" stroke-miterlimit="4" path="" fill-rule="evenodd" stroke-dasharray="none" style="display: none;"/></g><g class="shapebase"><g transform="matrix(1.00000000,0.00000000,0.00000000,1.00000000,934.00000000,525.00000000)"><path fill="rgb(204, 204, 255)" fill-opacity="0" stroke="rgb(51, 51, 51)" stroke-opacity="1" stroke-width="3.0" stroke-linecap="butt" stroke-linejoin="miter" stroke-miterlimit="4" path="" stroke-dasharray="none" d="m0.18165057739736618,10.85075343655969l0,34.1925309318896c0,0 13.663338331989852,10.773282460928733 33.70116149963699,9.836137878339406c20.037821866695488,-0.9370107812497227 30.512316959856136,-8.430688607134625 30.512316959856136,-8.430688607134625l0,-34.1925309318896" fill-rule="evenodd"/><path fill="rgb(204, 204, 255)" fill-opacity="0" stroke="rgb(51, 51, 51)" stroke-opacity="1" stroke-width="3.0" stroke-linecap="butt" stroke-linejoin="miter" stroke-miterlimit="4" path="" stroke-dasharray="none" d="m33.8809803371166,0.546310869604829c39.02444488143077,3.5417214593288815 43.71984346549501,18.736067783466716 0,19.672677160697624c-43.719385530515574,0.9375459866081403 -46.45104573995878,-23.887553159576324 0,-19.672677160697624z" fill-rule="evenodd"/></g><rect fill="rgb(0, 0, 0)" fill-opacity="0" stroke="none" stroke-opacity="0" stroke-width="1" stroke-linecap="butt" stroke-linejoin="miter" stroke-miterlimit="4" x="934" y="525" width="65" height="55" ry="0" rx="0" fill-rule="evenodd"/><g transform="matrix(1.00000000,0.00000000,0.00000000,1.00000000,934.00000000,525.00000000)"><g class="shapebase"><text fill="rgb(51, 51, 51)" fill-opacity="1" stroke="none" stroke-opacity="0" stroke-width="1" stroke-linecap="butt" stroke-linejoin="miter" stroke-miterlimit="4" x="32" y="40" text-anchor="middle" text-decoration="none" rotate="0" kerning="auto" text-rendering="auto" fill-rule="evenodd" font-style="normal" font-variant="normal" font-weight="bold" font-size="12px" font-family="arial,helvetica,sans-serif">Db</text></g></g></g><g class="shapebase"><g transform="matrix(1.00000000,0.00000000,0.00000000,1.00000000,890.00000000,531.00000000)"><path fill="rgb(204, 204, 255)" fill-opacity="0" stroke="rgb(51, 51, 51)" stroke-opacity="1" stroke-width="3.0" stroke-linecap="butt" stroke-linejoin="miter" stroke-miterlimit="4" path="" stroke-dasharray="none" d="m24.950336947661658,13.48714330776677c-0.6562601232054366,9.240001417675133 -15.766193978899691,16.35786505366025 -22.024228950372063,7.378639023020686c-6.256876984212547,-8.975464605411005 -1.9691476930928604,-19.247926961892013 8.030554407567656,-20.66939369325251c9.997029822368612,-1.4227440067723351 14.575817971528831,5.097515653060458 13.993674542804408,13.290754670231825z" fill-rule="evenodd"/><path fill="rgb(51, 51, 51)" fill-opacity="1" stroke="rgb(51, 51, 51)" stroke-opacity="1" stroke-width="3.0" stroke-linecap="butt" stroke-linejoin="miter" stroke-miterlimit="4" path="" stroke-dasharray="none" style="stroke:none;" d="m5.610627344051808,9.819089928999174c1.1800450345928721,-5.88270814087877 10.969316698624421,-5.155153963180434 13.480294068890268,-0.14301461697889645c2.5109406379181927,5.010489951181528 -0.008264778222390195,8.382497038430781 -5.5514790812402355,9.30644991095077c-5.816420321789324,0.9706488547023385 -9.250904010625051,-2.575057631270019 -7.928814987650034,-9.163435293971874z" fill-rule="evenodd"/></g><rect fill="rgb(0, 0, 0)" fill-opacity="0" stroke="none" stroke-opacity="0" stroke-width="1" stroke-linecap="butt" stroke-linejoin="miter" stroke-miterlimit="4" x="890" y="531" width="25" height="25" ry="0" rx="0" fill-rule="evenodd"/><g transform="matrix(1.00000000,0.00000000,0.00000000,1.00000000,890.00000000,531.00000000)"><g class="shapebase"><text fill="rgb(51, 51, 51)" fill-opacity="1" stroke="none" stroke-opacity="0" stroke-width="1" stroke-linecap="butt" stroke-linejoin="miter" stroke-miterlimit="4" x="12" y="40" text-anchor="middle" text-decoration="none" rotate="0" kerning="auto" text-rendering="auto" fill-rule="evenodd" font-style="normal" font-variant="normal" font-weight="bold" font-size="12px" font-family="arial,helvetica,sans-serif">Storage</text></g></g></g><g class="shapebase"><g transform="matrix(1.00000000,0.00000000,0.00000000,1.00000000,593.00000000,480.00000000)"><path fill="rgb(204, 204, 255)" fill-opacity="0" stroke="rgb(51, 51, 51)" stroke-opacity="1" stroke-width="3.0" stroke-linecap="butt" stroke-linejoin="miter" stroke-miterlimit="4" path="" stroke-dasharray="none" d="m0.07158753522860285,18.07700301154019l1.7078971796464777,79.8522629713307l37.59196835300665,18.031331914672908l-1.7090358819612248,-77.27692640822964" fill-rule="evenodd"/><path fill="rgb(204, 204, 255)" fill-opacity="0" stroke="rgb(51, 51, 51)" stroke-opacity="1" stroke-width="3.0" stroke-linecap="butt" stroke-linejoin="miter" stroke-miterlimit="4" path="" stroke-dasharray="none" d="m87.21563840173083,0.04838485619288075c0,0 -82.01922062524804,11.59109718646051 -83.7269950036645,15.455763945737871c-1.7090414638353166,3.8639094310934725 34.17390775283238,23.18349866034883 34.17390775283238,23.18349866034883l92.26865783279271,-21.895199271978385l-42.715849675665204,-16.744126444790304z" fill-rule="evenodd"/><path fill="rgb(204, 204, 255)" fill-opacity="0" stroke="rgb(51, 51, 51)" stroke-opacity="1" stroke-width="3.0" stroke-linecap="butt" stroke-linejoin="miter" stroke-miterlimit="4" path="" stroke-dasharray="none" d="m129.93120898369142,16.793752477729l-1.7078915977723856,79.85205260239074l-88.85171360743684,19.31969441372534l-1.8752864199143404,-77.27692640822964" fill-rule="evenodd"/><path fill="rgb(204, 204, 255)" fill-opacity="0" stroke="rgb(51, 51, 51)" stroke-opacity="1" stroke-width="3.0" stroke-linecap="butt" stroke-linejoin="miter" stroke-miterlimit="4" path="" stroke-dasharray="none" d="m13.740480811470528,47.69694975918197l11.961007260343631,6.439982285484435" fill-rule="evenodd"/></g><rect fill="rgb(0, 0, 0)" fill-opacity="0" stroke="none" stroke-opacity="0" stroke-width="1" stroke-linecap="butt" stroke-linejoin="miter" stroke-miterlimit="4" x="593" y="480" width="130" height="116" ry="0" rx="0" fill-rule="evenodd"/><g transform="matrix(1.00000000,0.00000000,0.00000000,1.00000000,593.00000000,480.00000000)"><g class="shapebase"/></g></g><g class="shapebase"><g transform="matrix(1.00000000,0.00000000,0.00000000,1.00000000,665.00000000,535.00000000)"><path fill="rgb(204, 204, 255)" fill-opacity="0" stroke="rgb(51, 51, 51)" stroke-opacity="1" stroke-width="3.0" stroke-linecap="butt" stroke-linejoin="miter" stroke-miterlimit="4" path="" stroke-dasharray="none" d="m24.950336947661658,13.48714330776677c-0.6562601232054366,9.240001417675133 -15.766193978899691,16.35786505366025 -22.024228950372063,7.378639023020686c-6.256876984212547,-8.975464605411005 -1.9691476930928604,-19.247926961892013 8.030554407567656,-20.66939369325251c9.997029822368612,-1.4227440067723351 14.575817971528831,5.097515653060458 13.993674542804408,13.290754670231825z" fill-rule="evenodd"/><path fill="rgb(51, 51, 51)" fill-opacity="1" stroke="rgb(51, 51, 51)" stroke-opacity="1" stroke-width="3.0" stroke-linecap="butt" stroke-linejoin="miter" stroke-miterlimit="4" path="" stroke-dasharray="none" style="stroke:none;" d="m5.610627344051808,9.819089928999174c1.1800450345928721,-5.88270814087877 10.969316698624421,-5.155153963180434 13.480294068890268,-0.14301461697889645c2.5109406379181927,5.010489951181528 -0.008264778222390195,8.382497038430781 -5.5514790812402355,9.30644991095077c-5.816420321789324,0.9706488547023385 -9.250904010625051,-2.575057631270019 -7.928814987650034,-9.163435293971874z" fill-rule="evenodd"/></g><rect fill="rgb(0, 0, 0)" fill-opacity="0" stroke="none" stroke-opacity="0" stroke-width="1" stroke-linecap="butt" stroke-linejoin="miter" stroke-miterlimit="4" x="665" y="535" width="25" height="25" ry="0" rx="0" fill-rule="evenodd"/><g transform="matrix(1.00000000,0.00000000,0.00000000,1.00000000,665.00000000,535.00000000)"><g class="shapebase"><text fill="rgb(51, 51, 51)" fill-opacity="1" stroke="none" stroke-opacity="0" stroke-width="1" stroke-linecap="butt" stroke-linejoin="miter" stroke-miterlimit="4" x="12" y="40" text-anchor="middle" text-decoration="none" rotate="0" kerning="auto" text-rendering="auto" fill-rule="evenodd" font-style="normal" font-variant="normal" font-weight="bold" font-size="12px" font-family="arial,helvetica,sans-serif">Web App</text></g></g></g><g class="shapebase"><g transform="matrix(1.00000000,0.00000000,0.00000000,1.00000000,866.00000000,350.00000000)"><path fill="rgb(204, 204, 255)" fill-opacity="0" stroke="rgb(51, 51, 51)" stroke-opacity="1" stroke-width="3.0" stroke-linecap="butt" stroke-linejoin="miter" stroke-miterlimit="4" path="" stroke-dasharray="none" d="m24.950336947661658,13.48714330776677c-0.6562601232054366,9.240001417675133 -15.766193978899691,16.35786505366025 -22.024228950372063,7.378639023020686c-6.256876984212547,-8.975464605411005 -1.9691476930928604,-19.247926961892013 8.030554407567656,-20.66939369325251c9.997029822368612,-1.4227440067723351 14.575817971528831,5.097515653060458 13.993674542804408,13.290754670231825z" fill-rule="evenodd"/><path fill="rgb(51, 51, 51)" fill-opacity="1" stroke="rgb(51, 51, 51)" stroke-opacity="1" stroke-width="3.0" stroke-linecap="butt" stroke-linejoin="miter" stroke-miterlimit="4" path="" stroke-dasharray="none" style="stroke:none;" d="m5.610627344051808,9.819089928999174c1.1800450345928721,-5.88270814087877 10.969316698624421,-5.155153963180434 13.480294068890268,-0.14301461697889645c2.5109406379181927,5.010489951181528 -0.008264778222390195,8.382497038430781 -5.5514790812402355,9.30644991095077c-5.816420321789324,0.9706488547023385 -9.250904010625051,-2.575057631270019 -7.928814987650034,-9.163435293971874z" fill-rule="evenodd"/></g><rect fill="rgb(0, 0, 0)" fill-opacity="0" stroke="none" stroke-opacity="0" stroke-width="1" stroke-linecap="butt" stroke-linejoin="miter" stroke-miterlimit="4" x="866" y="350" width="25" height="25" ry="0" rx="0" fill-rule="evenodd"/><g transform="matrix(1.00000000,0.00000000,0.00000000,1.00000000,866.00000000,350.00000000)"><g class="shapebase"/></g></g><g class="shapebase"><g transform="matrix(1.00000000,0.00000000,0.00000000,1.00000000,593.00000000,235.00000000)"><path fill="rgb(204, 204, 255)" fill-opacity="0" stroke="rgb(51, 51, 51)" stroke-opacity="1" stroke-width="3.0" stroke-linecap="butt" stroke-linejoin="miter" stroke-miterlimit="4" path="" stroke-dasharray="none" d="m98.75786054925126,0.10861873104135408c-9.029307943069565,0 -17.017982101191738,6.1780504848220446 -21.925703829933685,15.666708423379475c-9.18364672584021,-6.475208465849918 -21.45201933152984,-10.23268481264007 -33.3543206558999,-9.38145696779493c-17.709827939684608,1.2671529764588183 -28.603779444232558,12.304878662795113 -26.49260378543384,25.63950863006481c-11.57000475404014,5.728917748741364 -18.051767772324673,12.866929144956261 -16.56353754159993,19.929867847695625c1.217846199574476,5.779591245159815 7.577041956322769,10.571849658704357 17.222447213651854,13.90868567759857c-2.8114721629102393,6.101697233675291 -2.85886856423558,12.471396894256827 0.4771411653768533,18.016211610658416c7.3635857828681655,12.239135746638505 28.582629487281796,15.942485664718156 48.03183175002937,8.61899921008717c0.383820474267237,0.6886358946718033 0.7795016953178747,1.3686211649324604 1.2042151920771351,2.0379961002029727c10.206857418497766,16.087074346060152 28.392699146999295,20.162792141250833 40.6022804626628,9.101334977214597c3.9734153925708076,-3.599784816419377 6.809401007788295,-8.369153261590784 8.497624113380041,-13.706586236557834c7.246888333172883,12.293582314766814 22.372042458887975,14.584751526701229 35.60371640781076,4.667495509005252c3.6138894173119898,-2.7087682153611956 6.746696509868195,-6.067922525096749 9.315577734837031,-9.832693477192624c3.0538860747802468,3.288266295792774 6.373311256651554,6.157813100196446 9.860864620538939,8.448159096485073c17.42006421229752,11.439976291389403 32.63950801393406,4.112282290124393 34.013230327951824,-16.367059134032854c0.24740791051565023,-3.688280498341491 0.03680278852665581,-7.5434679688663175 -0.5907453174035658,-11.46620485654823c12.313188153237279,-3.901539084802895 19.709384001888555,-9.145720020783285 19.131021192320922,-14.701991154922075c-0.4429238892087157,-4.255613280896437 -5.497404889717147,-8.054158941570856 -13.700699866500464,-11.015128416859442c3.9604086349041716,-5.0579969974248735 6.737472519832401,-10.056974006467067 7.952337227678135,-14.624540282914273c4.324802827126326,-16.26001823297926 -12.990871906018624,-20.92122528913475 -38.693753069802,-10.40812121359781c-1.1333162504838217,0.4635115693604292 -2.258969135508612,0.9567503703742817 -3.3854093206930234,1.4624105807990109c-9.344134835301388,-15.090686142341221 -33.63942580246083,-18.673732240629594 -54.68940960869315,-7.934541134817736c-1.373927291574106,0.7009201014750486 -2.699246950808069,1.4404993243603106 -3.976173272419894,2.22474028273965c-4.839194004789146,-6.366887007125098 -11.362884250509111,-10.283769916881413 -18.540266557755704,-10.283769916881413z" fill-rule="evenodd"/></g><rect fill="rgb(0, 0, 0)" fill-opacity="0" stroke="none" stroke-opacity="0" stroke-width="1" stroke-linecap="butt" stroke-linejoin="miter" stroke-miterlimit="4" x="593" y="235" width="224" height="110" ry="0" rx="0" fill-rule="evenodd"/><g transform="matrix(1.00000000,0.00000000,0.00000000,1.00000000,593.00000000,235.00000000)"><g class="shapebase"/></g></g></g><g/><g/></g></svg>