<?xml version="1.0" encoding="UTF-8"?>
<svg style="background-color:transparent;" preserveAspectRatio="xMinYMin meet" height="405" width="750" viewBox="745 295 770 425" xmlns:xlink="http://www.w3.org/1999/xlink" xmlns="http://www.w3.org/2000/svg" ><defs><g id="linkshape" class="svglink"><rect width="26" height="25.705463" x="0" y="0" rx="26" style="fill:#fff;stroke:none;"/><path d="m12.96972,3.89162c-1.46202,0.0926 -1.96087,1.3485 -1.97318,2.16807c0.061,1.06359 0.95974,1.43208 1.91556,1.67657c0.86622,0.20718 2.53795,-0.39401 2.58252,-1.25608c0.1196,-2.10236 -0.96772,-2.51327 -2.5249,-2.58856 z" style="fill:none;stroke:#00642A;stroke-width:1.33538628"/><path d="m13.33742,8.10908c-0.00095,4.26823 0.42843,9.17994 0.13576,13.07847" style="fill:none;stroke:#00642A;stroke-width:1.33538628"/><path d="m5.79976,15.83298c1.21269,7.46208 13.76733,8.39403 14.45306,0.22481" style="fill:none;stroke:#00642A;stroke-width:1.33538628"/><path d="m20.53438,12.70151c0.36453,0.65146 1.3076,1.62194 1.50505,2.23541c0.14125,0.40272 0.14865,0.52327 -0.60832,0.50239c-0.84553,0.0577 -2.5409,0.2236 -3.30599,0.13608c-0.42486,-0.124 -0.38393,-0.3733 -0.15689,-0.81348c0.4456,-0.73802 0.83742,-1.23374 1.36025,-2.03069c0.44058,-0.5668 0.8427,-0.6095 1.2059,-0.0297 z" style="fill:none;stroke:#00642A;stroke-width:1.33538628"/><path d="m6.65205,12.98495c0.46781,0.5895 0.69238,0.72549 1.30269,1.52036c0.2394,0.21964 0.28495,0.66561 -0.15744,0.62957c-1.02897,0.0804 -2.31388,0.096 -3.23877,0.112c-0.84264,0.0267 -0.72894,-0.1367 -0.46065,-0.75013c0.29098,-0.54544 0.6673,-0.89767 1.08185,-1.59111c0.54713,-0.81778 0.90943,-0.7521 1.47232,0.0793 z" style="fill:none;stroke:#00642A;stroke-width:1.33538628"/></g><style type="text/css">.svg-txt-center tspan {text-anchor: middle;} .svg-txt-right tspan {text-anchor: end;} svg a {fill: #0088cc;} .dark-shape a {fill:#B8ECFF;}</style></defs><g><g/><g><g class="shapebase"><polyline fill="rgb(255, 255, 255)" fill-opacity="0" stroke="rgb(51, 51, 51)" stroke-opacity="1" stroke-width="2" stroke-linecap="butt" stroke-linejoin="miter" stroke-miterlimit="4" points="1259.55392792 453.77929287 1277.00000000 444.00000000 1259.80784791 433.78090481" fill-rule="evenodd" stroke-dasharray="none" dojoGfxStrokeStyle="solid" style="display: inline;"/><path fill="none" fill-opacity="0" stroke="rgb(51, 51, 51)" stroke-opacity="1" stroke-width="2" stroke-linecap="butt" stroke-linejoin="miter" stroke-miterlimit="4" path="" stroke-dasharray="none" d="M925,400 C1101,400 1101,444  1277,444"/><path fill="none" fill-opacity="0" stroke="rgb(51, 51, 51)" stroke-opacity="0" stroke-width="10" stroke-linecap="butt" stroke-linejoin="miter" stroke-miterlimit="4" path="" stroke-dasharray="none" style="display: none;" d="M925,400 C1101,400 1101,444  1277,444"/><path fill="rgb(250, 250, 250)" fill-opacity="1" stroke="rgb(51, 51, 51)" stroke-opacity="1" stroke-width="2" stroke-linecap="butt" stroke-linejoin="miter" stroke-miterlimit="4" path="" stroke-dasharray="none" fill-rule="evenodd" style="display: none;"/><path fill="rgb(250, 250, 250)" fill-opacity="1" stroke="rgb(51, 51, 51)" stroke-opacity="1" stroke-width="2" stroke-linecap="butt" stroke-linejoin="miter" stroke-miterlimit="4" path="" fill-rule="evenodd" stroke-dasharray="none" style="display: none;"/></g><g class="shapebase"><polyline fill="rgb(255, 255, 255)" fill-opacity="0" stroke="rgb(51, 51, 51)" stroke-opacity="1" stroke-width="2" stroke-linecap="butt" stroke-linejoin="miter" stroke-miterlimit="4" points="1259.59389894 522.85026121 1277.00000000 513.00000000 1259.76637303 502.85100491" fill-rule="evenodd" stroke-dasharray="none" dojoGfxStrokeStyle="solid" style="display: inline;"/><path fill="none" fill-opacity="0" stroke="rgb(51, 51, 51)" stroke-opacity="1" stroke-width="2" stroke-linecap="butt" stroke-linejoin="miter" stroke-miterlimit="4" path="" stroke-dasharray="none" d="M889,445 C889,479 1083,513  1277,513"/><path fill="none" fill-opacity="0" stroke="rgb(51, 51, 51)" stroke-opacity="0" stroke-width="10" stroke-linecap="butt" stroke-linejoin="miter" stroke-miterlimit="4" path="" stroke-dasharray="none" style="display: none;" d="M889,445 C889,479 1083,513  1277,513"/><path fill="rgb(250, 250, 250)" fill-opacity="1" stroke="rgb(51, 51, 51)" stroke-opacity="1" stroke-width="2" stroke-linecap="butt" stroke-linejoin="miter" stroke-miterlimit="4" path="" stroke-dasharray="none" fill-rule="evenodd" style="display: none;"/><path fill="rgb(250, 250, 250)" fill-opacity="1" stroke="rgb(51, 51, 51)" stroke-opacity="1" stroke-width="2" stroke-linecap="butt" stroke-linejoin="miter" stroke-miterlimit="4" path="" fill-rule="evenodd" stroke-dasharray="none" style="display: none;"/></g><g class="shapebase"><polyline fill="rgb(255, 255, 255)" fill-opacity="0" stroke="rgb(51, 51, 51)" stroke-opacity="1" stroke-width="2" stroke-linecap="butt" stroke-linejoin="miter" stroke-miterlimit="4" points="1259.54525309 589.76380101 1277.00000000 580.00000000 1259.81692683 569.76564626" fill-rule="evenodd" stroke-dasharray="none" dojoGfxStrokeStyle="solid" style="display: inline;"/><path fill="none" fill-opacity="0" stroke="rgb(51, 51, 51)" stroke-opacity="1" stroke-width="2" stroke-linecap="butt" stroke-linejoin="miter" stroke-miterlimit="4" path="" stroke-dasharray="none" d="M788,445 C788,512.5 1032.5,580  1277,580"/><path fill="none" fill-opacity="0" stroke="rgb(51, 51, 51)" stroke-opacity="0" stroke-width="10" stroke-linecap="butt" stroke-linejoin="miter" stroke-miterlimit="4" path="" stroke-dasharray="none" style="display: none;" d="M788,445 C788,512.5 1032.5,580  1277,580"/><path fill="rgb(250, 250, 250)" fill-opacity="1" stroke="rgb(51, 51, 51)" stroke-opacity="1" stroke-width="2" stroke-linecap="butt" stroke-linejoin="miter" stroke-miterlimit="4" path="" stroke-dasharray="none" fill-rule="evenodd" style="display: none;"/><path fill="rgb(250, 250, 250)" fill-opacity="1" stroke="rgb(51, 51, 51)" stroke-opacity="1" stroke-width="2" stroke-linecap="butt" stroke-linejoin="miter" stroke-miterlimit="4" path="" fill-rule="evenodd" stroke-dasharray="none" style="display: none;"/></g><g class="shapebase"><g transform="matrix(1.00000000,0.00000000,0.00000000,1.00000000,808.00000000,372.00000000)"><path fill="rgb(204, 204, 255)" fill-opacity="0" stroke="rgb(51, 51, 51)" stroke-opacity="1" stroke-width="3.0" stroke-linecap="butt" stroke-linejoin="miter" stroke-miterlimit="4" path="" stroke-dasharray="none" d="m7.570124195592333,7.836401245460435c12.142204128756818,-12.625315550856183 50.43623340146299,-7.429670474545163 52.30633557658755,11.878951102989298c1.866477035394625,19.307870770813494 -18.680345028341513,29.706293587284712 -40.164131447830734,21.536139984186896c-21.48009414754206,-8.164522552690572 -22.90584817688102,-22.221313684295062 -12.142204128756818,-33.415091087176194z" fill-rule="evenodd"/><path fill="rgb(204, 204, 255)" fill-opacity="0" stroke="rgb(51, 51, 51)" stroke-opacity="1" stroke-width="3.0" stroke-linecap="butt" stroke-linejoin="miter" stroke-miterlimit="4" path="" stroke-dasharray="none" d="m21.776576871676752,11.56140365707943c0,2.7112256366347407 0,5.4225138404962285 0,8.133739477130968" fill-rule="evenodd"/><path fill="rgb(204, 204, 255)" fill-opacity="0" stroke="rgb(51, 51, 51)" stroke-opacity="1" stroke-width="3.0" stroke-linecap="butt" stroke-linejoin="miter" stroke-miterlimit="4" path="" stroke-dasharray="none" d="m33.860375971451326,11.56140365707943c0,3.128361337358065 0,6.25672267471613 0,9.385084012074195" fill-rule="evenodd"/><path fill="rgb(204, 204, 255)" fill-opacity="0" stroke="rgb(51, 51, 51)" stroke-opacity="1" stroke-width="3.0" stroke-linecap="butt" stroke-linejoin="miter" stroke-miterlimit="4" path="" stroke-dasharray="none" d="m23.11922121609615,35.96262208847234c3.7489315384878403,-3.4940042104684754 14.320510313142849,-10.63642854701742 20.139665166290957,-10.63642854701742" fill-rule="evenodd"/></g><rect fill="rgb(0, 0, 0)" fill-opacity="0" stroke="none" stroke-opacity="0" stroke-width="1" stroke-linecap="butt" stroke-linejoin="miter" stroke-miterlimit="4" x="808" y="372" width="61" height="45" ry="0" rx="0" fill-rule="evenodd"/><g transform="matrix(1.00000000,0.00000000,0.00000000,1.00000000,808.00000000,372.00000000)"><g class="shapebase"/></g></g><g class="shapebase"><g transform="matrix(1.00000000,0.00000000,0.00000000,1.00000000,1098.00000000,305.00000000)"><path fill="rgb(204, 204, 255)" fill-opacity="0" stroke="rgb(51, 51, 51)" stroke-opacity="1" stroke-width="3.0" stroke-linecap="butt" stroke-linejoin="miter" stroke-miterlimit="4" path="" stroke-dasharray="none" d="m0.22412405260031817,55.3218626646273l5.347031939354742,244.3754599553655l117.69177784364389,55.182093359559325l-5.350596953524758,-236.49404202518554" fill-rule="evenodd"/><path fill="rgb(204, 204, 255)" fill-opacity="0" stroke="rgb(51, 51, 51)" stroke-opacity="1" stroke-width="3.0" stroke-linecap="butt" stroke-linejoin="miter" stroke-miterlimit="4" path="" stroke-dasharray="none" d="m273.0520371500342,0.14807434438338507c0,0 -256.7832522651996,35.47275432063346 -262.12989974224195,47.29996724773228c-5.350614429084414,11.824895241708472 106.9906188877137,70.9495002105503 106.9906188877137,70.9495002105503l288.87187490728184,-67.00685984096833l-133.73346783073646,-51.24280075776343z" fill-rule="evenodd"/><path fill="rgb(204, 204, 255)" fill-opacity="0" stroke="rgb(51, 51, 51)" stroke-opacity="1" stroke-width="3.0" stroke-linecap="butt" stroke-linejoin="miter" stroke-miterlimit="4" path="" stroke-dasharray="none" d="m406.7846312027878,51.394673530980995l-5.347014463795085,244.3748161538682l-278.17421106328305,59.124926869590475l-5.8710890223472045,-236.49404202518554" fill-rule="evenodd"/><path fill="rgb(204, 204, 255)" fill-opacity="0" stroke="rgb(51, 51, 51)" stroke-opacity="1" stroke-width="3.0" stroke-linecap="butt" stroke-linejoin="miter" stroke-miterlimit="4" path="" stroke-dasharray="none" d="m43.01827454052697,145.9691134871517l37.44715349969122,19.70856647712909" fill-rule="evenodd"/></g><rect fill="rgb(0, 0, 0)" fill-opacity="0" stroke="none" stroke-opacity="0" stroke-width="1" stroke-linecap="butt" stroke-linejoin="miter" stroke-miterlimit="4" x="1098" y="305" width="407" height="355" ry="0" rx="0" fill-rule="evenodd"/><g transform="matrix(1.00000000,0.00000000,0.00000000,1.00000000,1098.00000000,305.00000000)"><g class="shapebase"><text fill="rgb(51, 51, 51)" fill-opacity="1" stroke="none" stroke-opacity="0" stroke-width="1" stroke-linecap="butt" stroke-linejoin="miter" stroke-miterlimit="4" x="203" y="397" text-anchor="middle" text-decoration="none" rotate="0" kerning="auto" text-rendering="auto" fill-rule="evenodd" font-style="normal" font-variant="normal" font-weight="bold" font-size="36px" font-family="arial,helvetica,sans-serif">The Mighty Server</text></g></g></g><g class="shapebase"><g transform="matrix(1.00000000,0.00000000,0.00000000,1.00000000,1410.00000000,506.00000000)"><path fill="rgb(204, 204, 255)" fill-opacity="0" stroke="rgb(51, 51, 51)" stroke-opacity="1" stroke-width="3.0" stroke-linecap="butt" stroke-linejoin="miter" stroke-miterlimit="4" path="" stroke-dasharray="none" d="m0.20680219580623224,15.782914089541364l0,49.734590446384864c0,0 15.555185177957675,15.670229034078156 38.36747616881749,14.307109641220952c22.8122895097764,-1.3629247727268692 34.737099308143904,-12.262819792195817 34.737099308143904,-12.262819792195817l0,-49.734590446384864" fill-rule="evenodd"/><path fill="rgb(204, 204, 255)" fill-opacity="0" stroke="rgb(51, 51, 51)" stroke-opacity="1" stroke-width="3.0" stroke-linecap="butt" stroke-linejoin="miter" stroke-miterlimit="4" path="" stroke-dasharray="none" d="m38.572192999178895,0.7946339921524784c44.427829557321175,5.151594849932918 49.77336025302509,27.252462230497038 0,28.614803142832905c-49.77283891166388,1.3637032532482039 -52.88272899626076,-34.74553186847465 0,-28.614803142832905z" fill-rule="evenodd"/></g><rect fill="rgb(0, 0, 0)" fill-opacity="0" stroke="none" stroke-opacity="0" stroke-width="1" stroke-linecap="butt" stroke-linejoin="miter" stroke-miterlimit="4" x="1410" y="506" width="74" height="80" ry="0" rx="0" fill-rule="evenodd"/><g transform="matrix(1.00000000,0.00000000,0.00000000,1.00000000,1410.00000000,506.00000000)"><g class="shapebase"><text fill="rgb(51, 51, 51)" fill-opacity="1" stroke="none" stroke-opacity="0" stroke-width="1" stroke-linecap="butt" stroke-linejoin="miter" stroke-miterlimit="4" x="37" y="53" text-anchor="middle" text-decoration="none" rotate="0" kerning="auto" text-rendering="auto" fill-rule="evenodd" font-style="normal" font-variant="normal" font-weight="bold" font-size="12px" font-family="arial,helvetica,sans-serif">SQL</text></g></g></g><g class="shapebase"><g transform="matrix(1.00000000,0.00000000,0.00000000,1.00000000,755.00000000,358.00000000)"><path fill="rgb(204, 204, 255)" fill-opacity="0" stroke="rgb(51, 51, 51)" stroke-opacity="1" stroke-width="3.0" stroke-linecap="butt" stroke-linejoin="miter" stroke-miterlimit="4" path="" stroke-dasharray="none" d="m22.7912832,-0.18882142857142856l125.346144,-0.9623730357142857c1.43052336,-0.010931607142857142 2.65865712,1.0427860714285713 2.58228096,2.333113392857143l-4.2599088,71.97617857142858c-0.07636608,1.2899569642857143 -1.1517072,2.3383014285714285 -2.58228096,2.3327430357142855l-123.21624,-0.4809998214285714c-1.43057376,-0.00592875 -2.62129392,-1.0413046428571429 -2.58228432,-2.333113392857143l2.12995104,-70.53269642857143c0.03901968,-1.2921791071428572 1.15175088,-2.322366964285714 2.58228432,-2.333113392857143z" fill-rule="evenodd"/><path fill="rgb(204, 204, 255)" fill-opacity="0" stroke="rgb(51, 51, 51)" stroke-opacity="1" stroke-width="3.0" stroke-linecap="butt" stroke-linejoin="miter" stroke-miterlimit="4" path="" stroke-dasharray="none" d="m0.05691503999999999,79.77189285714284c-0.07560672,0.9468089285714285 -0.05691503999999999,0.8449 -0.05691503999999999,1.9451248214285712c0,1.4418914285714286 1.2049732800000001,2.55323 2.78673024,2.562124642857143l162.803088,0.9101223214285713c1.5817535999999999,0.009264999999999999 2.963352,-0.5688260714285713 2.78673024,-2.0029339285714283c-0.13311984,-1.080954107142857 0.16299696,-1.4344782142857142 -0.20227199999999998,-2.6280876785714287l-65.88288,-0.48952410714285716c-0.11127984,1.3058914285714285 -1.3227614399999998,2.347563392857143 -2.78673024,2.3345948214285714l-27.6466512,-0.24161249999999998c-1.46396208,-0.012598214285714286 -2.6754672,-1.074655 -2.78673024,-2.3827685714285716z" fill-rule="evenodd"/></g><rect fill="rgb(0, 0, 0)" fill-opacity="0" stroke="none" stroke-opacity="0" stroke-width="1" stroke-linecap="butt" stroke-linejoin="miter" stroke-miterlimit="4" x="755" y="358" width="168" height="85" ry="0" rx="0" fill-rule="evenodd"/><g transform="matrix(1.00000000,0.00000000,0.00000000,1.00000000,755.00000000,358.00000000)"><g class="shapebase"><text fill="rgb(51, 51, 51)" fill-opacity="1" stroke="none" stroke-opacity="0" stroke-width="1" stroke-linecap="butt" stroke-linejoin="miter" stroke-miterlimit="4" x="84" y="100" text-anchor="middle" text-decoration="none" rotate="0" kerning="auto" text-rendering="auto" fill-rule="evenodd" font-style="normal" font-variant="normal" font-weight="bold" font-size="12px" font-family="arial,helvetica,sans-serif">Client</text></g></g></g><g class="shapebase"><g transform="matrix(1.00000000,0.00000000,0.00000000,1.00000000,1281.00000000,432.00000000)"><path fill="rgb(204, 204, 255)" fill-opacity="0" stroke="rgb(51, 51, 51)" stroke-opacity="1" stroke-width="3.0" stroke-linecap="butt" stroke-linejoin="miter" stroke-miterlimit="4" path="" stroke-dasharray="none" d="m24.950336947661658,13.48714330776677c-0.6562601232054366,9.240001417675133 -15.766193978899691,16.35786505366025 -22.024228950372063,7.378639023020686c-6.256876984212547,-8.975464605411005 -1.9691476930928604,-19.247926961892013 8.030554407567656,-20.66939369325251c9.997029822368612,-1.4227440067723351 14.575817971528831,5.097515653060458 13.993674542804408,13.290754670231825z" fill-rule="evenodd"/><path fill="rgb(51, 51, 51)" fill-opacity="1" stroke="rgb(51, 51, 51)" stroke-opacity="1" stroke-width="3.0" stroke-linecap="butt" stroke-linejoin="miter" stroke-miterlimit="4" path="" stroke-dasharray="none" style="stroke:none;" d="m5.610627344051808,9.819089928999174c1.1800450345928721,-5.88270814087877 10.969316698624421,-5.155153963180434 13.480294068890268,-0.14301461697889645c2.5109406379181927,5.010489951181528 -0.008264778222390195,8.382497038430781 -5.5514790812402355,9.30644991095077c-5.816420321789324,0.9706488547023385 -9.250904010625051,-2.575057631270019 -7.928814987650034,-9.163435293971874z" fill-rule="evenodd"/></g><rect fill="rgb(0, 0, 0)" fill-opacity="0" stroke="none" stroke-opacity="0" stroke-width="1" stroke-linecap="butt" stroke-linejoin="miter" stroke-miterlimit="4" x="1281" y="432" width="25" height="25" ry="0" rx="0" fill-rule="evenodd"/><g transform="matrix(1.00000000,0.00000000,0.00000000,1.00000000,1281.00000000,432.00000000)"><g class="shapebase"><text fill="rgb(51, 51, 51)" fill-opacity="1" stroke="none" stroke-opacity="0" stroke-width="1" stroke-linecap="butt" stroke-linejoin="miter" stroke-miterlimit="4" x="12" y="40" text-anchor="middle" text-decoration="none" rotate="0" kerning="auto" text-rendering="auto" fill-rule="evenodd" font-style="normal" font-variant="normal" font-weight="bold" font-size="12px" font-family="arial,helvetica,sans-serif">Data Access</text></g></g></g><g class="shapebase"><g transform="matrix(1.00000000,0.00000000,0.00000000,1.00000000,1281.00000000,501.00000000)"><path fill="rgb(204, 204, 255)" fill-opacity="0" stroke="rgb(51, 51, 51)" stroke-opacity="1" stroke-width="3.0" stroke-linecap="butt" stroke-linejoin="miter" stroke-miterlimit="4" path="" stroke-dasharray="none" d="m24.950336947661658,13.48714330776677c-0.6562601232054366,9.240001417675133 -15.766193978899691,16.35786505366025 -22.024228950372063,7.378639023020686c-6.256876984212547,-8.975464605411005 -1.9691476930928604,-19.247926961892013 8.030554407567656,-20.66939369325251c9.997029822368612,-1.4227440067723351 14.575817971528831,5.097515653060458 13.993674542804408,13.290754670231825z" fill-rule="evenodd"/><path fill="rgb(51, 51, 51)" fill-opacity="1" stroke="rgb(51, 51, 51)" stroke-opacity="1" stroke-width="3.0" stroke-linecap="butt" stroke-linejoin="miter" stroke-miterlimit="4" path="" stroke-dasharray="none" style="stroke:none;" d="m5.610627344051808,9.819089928999174c1.1800450345928721,-5.88270814087877 10.969316698624421,-5.155153963180434 13.480294068890268,-0.14301461697889645c2.5109406379181927,5.010489951181528 -0.008264778222390195,8.382497038430781 -5.5514790812402355,9.30644991095077c-5.816420321789324,0.9706488547023385 -9.250904010625051,-2.575057631270019 -7.928814987650034,-9.163435293971874z" fill-rule="evenodd"/></g><rect fill="rgb(0, 0, 0)" fill-opacity="0" stroke="none" stroke-opacity="0" stroke-width="1" stroke-linecap="butt" stroke-linejoin="miter" stroke-miterlimit="4" x="1281" y="501" width="25" height="25" ry="0" rx="0" fill-rule="evenodd"/><g transform="matrix(1.00000000,0.00000000,0.00000000,1.00000000,1281.00000000,501.00000000)"><g class="shapebase"><text fill="rgb(51, 51, 51)" fill-opacity="1" stroke="none" stroke-opacity="0" stroke-width="1" stroke-linecap="butt" stroke-linejoin="miter" stroke-miterlimit="4" x="12" y="40" text-anchor="middle" text-decoration="none" rotate="0" kerning="auto" text-rendering="auto" fill-rule="evenodd" font-style="normal" font-variant="normal" font-weight="bold" font-size="12px" font-family="arial,helvetica,sans-serif">Web Interface</text></g></g></g><g class="shapebase"><g transform="matrix(1.00000000,0.00000000,0.00000000,1.00000000,1281.00000000,568.00000000)"><path fill="rgb(204, 204, 255)" fill-opacity="0" stroke="rgb(51, 51, 51)" stroke-opacity="1" stroke-width="3.0" stroke-linecap="butt" stroke-linejoin="miter" stroke-miterlimit="4" path="" stroke-dasharray="none" d="m24.950336947661658,13.48714330776677c-0.6562601232054366,9.240001417675133 -15.766193978899691,16.35786505366025 -22.024228950372063,7.378639023020686c-6.256876984212547,-8.975464605411005 -1.9691476930928604,-19.247926961892013 8.030554407567656,-20.66939369325251c9.997029822368612,-1.4227440067723351 14.575817971528831,5.097515653060458 13.993674542804408,13.290754670231825z" fill-rule="evenodd"/><path fill="rgb(51, 51, 51)" fill-opacity="1" stroke="rgb(51, 51, 51)" stroke-opacity="1" stroke-width="3.0" stroke-linecap="butt" stroke-linejoin="miter" stroke-miterlimit="4" path="" stroke-dasharray="none" style="stroke:none;" d="m5.610627344051808,9.819089928999174c1.1800450345928721,-5.88270814087877 10.969316698624421,-5.155153963180434 13.480294068890268,-0.14301461697889645c2.5109406379181927,5.010489951181528 -0.008264778222390195,8.382497038430781 -5.5514790812402355,9.30644991095077c-5.816420321789324,0.9706488547023385 -9.250904010625051,-2.575057631270019 -7.928814987650034,-9.163435293971874z" fill-rule="evenodd"/></g><rect fill="rgb(0, 0, 0)" fill-opacity="0" stroke="none" stroke-opacity="0" stroke-width="1" stroke-linecap="butt" stroke-linejoin="miter" stroke-miterlimit="4" x="1281" y="568" width="25" height="25" ry="0" rx="0" fill-rule="evenodd"/><g transform="matrix(1.00000000,0.00000000,0.00000000,1.00000000,1281.00000000,568.00000000)"><g class="shapebase"><text fill="rgb(51, 51, 51)" fill-opacity="1" stroke="none" stroke-opacity="0" stroke-width="1" stroke-linecap="butt" stroke-linejoin="miter" stroke-miterlimit="4" x="12" y="40" text-anchor="middle" text-decoration="none" rotate="0" kerning="auto" text-rendering="auto" fill-rule="evenodd" font-style="normal" font-variant="normal" font-weight="bold" font-size="12px" font-family="arial,helvetica,sans-serif">Report Documents</text></g></g></g><g class="shapebase"><g transform="matrix(1.00000000,0.00000000,0.00000000,1.00000000,1410.00000000,401.00000000)"><path fill="rgb(204, 204, 255)" fill-opacity="0" stroke="rgb(51, 51, 51)" stroke-opacity="1" stroke-width="3.0" stroke-linecap="butt" stroke-linejoin="miter" stroke-miterlimit="4" path="" stroke-dasharray="none" d="m0.20680219580623224,15.782914089541364l0,49.734590446384864c0,0 15.555185177957675,15.670229034078156 38.36747616881749,14.307109641220952c22.8122895097764,-1.3629247727268692 34.737099308143904,-12.262819792195817 34.737099308143904,-12.262819792195817l0,-49.734590446384864" fill-rule="evenodd"/><path fill="rgb(204, 204, 255)" fill-opacity="0" stroke="rgb(51, 51, 51)" stroke-opacity="1" stroke-width="3.0" stroke-linecap="butt" stroke-linejoin="miter" stroke-miterlimit="4" path="" stroke-dasharray="none" d="m38.572192999178895,0.7946339921524784c44.427829557321175,5.151594849932918 49.77336025302509,27.252462230497038 0,28.614803142832905c-49.77283891166388,1.3637032532482039 -52.88272899626076,-34.74553186847465 0,-28.614803142832905z" fill-rule="evenodd"/></g><rect fill="rgb(0, 0, 0)" fill-opacity="0" stroke="none" stroke-opacity="0" stroke-width="1" stroke-linecap="butt" stroke-linejoin="miter" stroke-miterlimit="4" x="1410" y="401" width="74" height="80" ry="0" rx="0" fill-rule="evenodd"/><g transform="matrix(1.00000000,0.00000000,0.00000000,1.00000000,1410.00000000,401.00000000)"><g class="shapebase"><text fill="rgb(51, 51, 51)" fill-opacity="1" stroke="none" stroke-opacity="0" stroke-width="1" stroke-linecap="butt" stroke-linejoin="miter" stroke-miterlimit="4" x="37" y="53" text-anchor="middle" text-decoration="none" rotate="0" kerning="auto" text-rendering="auto" fill-rule="evenodd" font-style="normal" font-variant="normal" font-weight="bold" font-size="12px" font-family="arial,helvetica,sans-serif">Documents</text></g></g></g></g><g/><g/></g></svg>